<svg width="29" height="32" viewBox="0 0 29 32" fill="none" xmlns="http://www.w3.org/2000/svg">
<path d="M9.73094 27.8994H19.2634C18.8788 30.2268 16.8913 32 14.4971 32C12.103 32 10.1154 30.2268 9.73094 27.8994ZM14.4971 0C21.1707 0 26.5807 5.51102 26.5807 12.3092V18.8717L28.8658 24.0581C28.9542 24.2588 29 24.4764 29 24.6965C29 25.5577 28.3148 26.2557 27.4694 26.2557H1.53097C1.31541 26.2557 1.10231 26.2094 0.905569 26.1196C0.134042 25.7678 -0.211419 24.8454 0.133977 24.0594L2.41358 18.8723L2.41374 12.288L2.42087 11.8778C2.64493 5.2625 7.98148 0 14.4971 0Z" fill="#0C9CE9"/>
</svg>
