<svg width="41" height="45" viewBox="0 0 41 45" fill="none" xmlns="http://www.w3.org/2000/svg">
<path d="M13.7575 39.2335H27.2344C26.6907 42.5065 23.8808 45 20.496 45C17.1111 45 14.3011 42.5065 13.7575 39.2335ZM20.496 0C29.9309 0 37.5796 7.74987 37.5796 17.3098V26.5383L40.8103 33.8317C40.9353 34.114 41 34.42 41 34.7295C41 35.9405 40.0312 36.9221 38.8361 36.9221H2.16447C1.85972 36.9221 1.55843 36.857 1.28029 36.7308C0.189507 36.2359 -0.298903 34.9388 0.189416 33.8335L3.41231 26.5392L3.41254 17.28L3.4226 16.7032C3.73938 7.40039 11.2842 0 20.496 0Z" fill="#D9D9D9"/>
</svg>
