<svg width="929" height="176" viewBox="0 0 929 176" fill="none" xmlns="http://www.w3.org/2000/svg">
<g clip-path="url(#clip0_1245_1554)">
<rect width="929" height="176" fill="white"/>
<rect y="-10" width="929" height="239" fill="#F7FDFF"/>
<g filter="url(#filter0_f_1245_1554)">
<ellipse cx="874.307" cy="75.7406" rx="153.571" ry="223.514" transform="rotate(-1.22306 874.307 75.7406)" fill="url(#paint0_linear_1245_1554)"/>
</g>
<path d="M877.744 78.5042C877.939 70.6488 860.066 69.8516 851.106 70.4349L844.835 90.3164C849.388 100.087 858.903 117.032 860.536 106.649C862.578 93.6705 877.501 88.3234 877.744 78.5042Z" fill="#FFD579"/>
<path d="M757.007 60.1299C780.11 43.3197 826.955 14.2247 836.815 27.2686C845.415 38.6464 836.321 45.4406 828.393 48.3018C842.768 44.3241 866.26 40.61 868.363 51.6221C870.657 63.6378 865.43 70.6604 862.53 72.6699L852.824 77.8789C858.343 80.8886 862.282 83.8517 863.842 86.4746C870.803 98.1799 858.673 122.463 851.738 133.141C859.204 150.057 857.118 164.072 855.141 168.966C864.377 173.535 882.313 183.976 880.175 189.188C877.502 195.701 869.578 205.91 851.738 204.16C833.898 202.41 819.363 197.403 817.808 186.368C804.6 182.046 769.802 182.326 745.528 183.225L747.324 192.542C743.743 192.25 734.665 191.842 727.004 192.542C717.428 193.417 711.109 180 709.116 168.966C707.522 160.138 722.732 149.538 730.536 145.342C731.355 128.352 734.337 110.475 734.337 103.002C734.338 90.0522 746.854 67.1764 754.324 61.8779C755.102 61.2211 756.001 60.6408 757.007 60.1299Z" fill="url(#paint1_linear_1245_1554)"/>
<path fill-rule="evenodd" clip-rule="evenodd" d="M744.65 183.259C744.941 183.248 745.233 183.237 745.527 183.226L747.323 192.543C743.743 192.251 734.665 191.843 727.004 192.543C717.428 193.418 711.109 180.002 709.116 168.967C707.522 160.14 722.731 149.539 730.535 145.343C729.58 165.152 731.566 183.756 744.65 183.259Z" fill="#FFD579"/>
<path d="M787.54 101.096L787.321 101.205C782.043 103.844 775.739 103.352 770.933 99.9273C765.31 95.9192 757.746 95.9857 752.193 100.092L749.149 102.343C745.353 105.151 742.945 109.452 742.536 114.155C742.114 119.005 743.86 123.794 747.304 127.234L750.525 130.451C753.184 133.106 756.381 135.159 759.902 136.47L763.113 137.667C770.916 140.574 779.408 141.096 787.509 139.165L788.871 138.84L790.725 138.291C796.494 136.582 801.943 133.935 806.852 130.456L808.317 129.13C811.613 126.146 813.491 121.906 813.485 117.46C813.479 113.005 811.582 108.762 808.266 105.787L805.775 103.552C800.777 99.0674 793.546 98.0935 787.54 101.096Z" fill="white" fill-opacity="0.9"/>
<path d="M749.897 199.091C744.349 199.091 738.339 185.927 736.027 179.345C742.877 164.766 758.741 142.005 767.394 167.597C776.047 193.188 772.357 199.256 769.43 199.091H749.897Z" fill="#FFD579"/>
<path d="M799.813 199.091C804.892 199.091 810.393 185.927 812.509 179.345C806.239 164.766 791.718 142.005 783.798 167.597C775.877 193.188 779.255 199.256 781.934 199.091H799.813Z" fill="#FFD579"/>
<path d="M796.621 73.8736C800.145 74.0521 802.857 77.0536 802.678 80.5775L802.293 88.1722C802.293 88.1754 802.291 88.1778 802.287 88.1777C802.284 88.1775 802.281 88.1801 802.281 88.1834C802.28 88.3617 802.276 88.5407 802.267 88.7203C801.871 96.5267 794.095 102.478 784.899 102.012C782.727 101.902 780.67 101.444 778.799 100.705C776.41 99.7613 773.681 99.6793 771.236 100.468C769.125 101.148 766.808 101.469 764.393 101.346C755.196 100.88 748.061 94.1741 748.456 86.3676C748.472 86.0666 748.5 85.7685 748.536 85.4732C748.538 85.4632 748.53 85.4542 748.52 85.4537C748.511 85.4532 748.503 85.445 748.504 85.4354L748.888 77.8523C749.066 74.3284 752.068 71.6164 755.592 71.7949L796.621 73.8736Z" fill="#653E3E"/>
<ellipse cx="758.261" cy="113.746" rx="2.33328" ry="2.62494" fill="#7F4343"/>
<ellipse cx="794.718" cy="113.746" rx="2.33328" ry="2.62494" fill="#7F4343"/>
<path d="M778.544 120.26H771.289C769.973 120.26 768.906 121.326 768.906 122.642V123.56C768.906 125.241 769.591 126.849 770.801 128.014L770.965 128.171C773.38 130.496 777.236 130.372 779.498 127.898C780.502 126.799 781.059 125.365 781.059 123.876V122.774C781.059 121.385 779.933 120.26 778.544 120.26Z" fill="#FF6741"/>
<path d="M800.97 79.3301L811.227 85.6008" stroke="#653E3E" stroke-width="7.69932" stroke-linecap="round"/>
<path d="M812.053 182.432C815.699 173.406 822.534 152.799 820.706 142.571" stroke="#F2B839" stroke-width="5.11306" stroke-linecap="round"/>
<path d="M780.66 177.863C781.848 172.827 784.99 161.523 788.06 156.59" stroke="#F2B839" stroke-width="5.11306" stroke-linecap="round"/>
<path d="M769.561 176.938C768.321 172.462 764.736 162.126 760.312 156.59" stroke="#F2B839" stroke-width="5.11306" stroke-linecap="round"/>
<rect x="754.733" y="75.9746" width="3.59714" height="3.59714" rx="1.79857" transform="rotate(1.24821 754.733 75.9746)" fill="#FFF7F7"/>
<rect x="757.883" y="79.0273" width="3.59714" height="3.59714" rx="1.79857" transform="rotate(1.24821 757.883 79.0273)" fill="#FFF7F7"/>
<rect width="49.9126" height="54.8667" rx="24.9563" transform="matrix(-0.923716 -0.383078 -0.384959 0.922934 725.109 92.1201)" fill="#FF7855"/>
<path d="M720.621 129.607C728.699 121.157 728.38 107.778 719.907 99.7238L714.215 94.3129C712.92 93.0813 710.868 93.1303 709.633 94.4223L693.76 111.024C687.604 117.462 687.848 127.656 694.303 133.794C700.759 139.931 710.983 139.687 717.139 133.249L720.621 129.607Z" fill="#FF7855"/>
<path d="M623.731 146.906L637.43 142.398C644.604 140.037 652.116 144.942 652.839 152.46L653.316 157.424C653.937 163.879 649.223 169.623 642.77 170.273L629.775 171.581C625.442 172.018 621.222 170.029 618.802 166.409L617.622 164.645C613.289 158.166 616.328 149.342 623.731 146.906Z" fill="#DD4537"/>
<path d="M719.913 138.709C719.913 115.331 700.961 96.3799 677.584 96.3799C654.206 96.3799 635.254 115.331 635.254 138.709V168.828C635.254 185.907 649.099 199.752 666.177 199.752H688.99C706.068 199.752 719.913 185.907 719.913 168.828V138.709Z" fill="#FF7855"/>
<ellipse cx="13.3046" cy="18.7699" rx="13.3046" ry="18.7699" transform="matrix(-0.964921 0.262542 0.26395 0.964536 726.149 142.707)" fill="#FF7855"/>
<path d="M681.424 120.918L681.151 121.043C676.368 123.232 670.796 122.808 666.399 119.921C661.239 116.532 654.546 116.58 649.435 120.043L646.333 122.145C643.129 124.315 641.06 127.801 640.689 131.653C640.299 135.702 641.83 139.701 644.823 142.455L648.142 145.508C650.383 147.57 653.026 149.145 655.906 150.135L659.488 151.366C666.434 153.753 673.901 154.19 681.078 152.628L682.59 152.299L684.671 151.735C689.632 150.392 694.353 148.283 698.665 145.485L698.875 145.348L700.425 144.063C703.257 141.715 704.895 138.228 704.895 134.55C704.895 130.864 703.251 127.371 700.41 125.023L698.096 123.111C693.419 119.244 686.942 118.393 681.424 120.918Z" fill="white" fill-opacity="0.9"/>
<ellipse cx="3.42185" cy="3.41203" rx="3.42185" ry="3.41203" transform="matrix(-1 0 0 1 695.707 131.257)" fill="#0C0C0C"/>
<ellipse cx="3.42185" cy="3.41203" rx="3.42185" ry="3.41203" transform="matrix(-1 0 0 1 655.404 127.845)" fill="#0C0C0C"/>
<path d="M678.788 138.525L678.856 138.798C678.934 139.109 678.888 139.438 678.727 139.715V139.715C678.461 140.174 677.93 140.411 677.411 140.302L670.076 138.77C669.296 138.607 668.5 138.525 667.703 138.525H661.16C660.725 138.525 660.312 138.334 660.031 138.003V138.003C659.505 137.382 659.578 136.454 660.194 135.923L660.474 135.682" stroke="#FF7855" stroke-width="1.77429" stroke-linecap="round"/>
<path d="M715.733 181.563C699.599 188.193 672.725 193.297 641.298 184.33C644.657 188.899 649.242 192.51 654.568 194.68C670.294 197.345 688.666 197.387 706.844 191.282C710.458 188.722 713.497 185.406 715.733 181.563ZM719.913 164.481C703.625 172.34 672.254 179.701 635.329 167.249C635.421 169.634 635.784 171.949 636.387 174.166C657.665 181.31 689.731 185.536 719.562 170.7C719.793 169.178 719.913 167.619 719.913 166.032V164.481ZM719.913 148.296C718.999 147.948 717.962 147.889 716.927 148.214C708.022 151.011 696.123 155.681 689.249 161.156C687.625 162.45 686.104 163.825 684.546 165.083C696.162 164.117 708.214 161.183 719.913 155.303V148.296ZM635.303 145.339V158.574C639.891 160.163 645.01 161.624 650.522 162.788C649.899 161.994 649.318 161.161 648.78 160.304C645.383 154.889 640.849 148.866 636.536 145.655C636.135 145.356 635.72 145.169 635.307 145.078C635.306 145.165 635.303 145.252 635.303 145.339Z" fill="white" fill-opacity="0.9"/>
<path d="M96.0738 89.1236C96.0738 90.2682 95.8097 91.3908 95.2814 92.4914C94.7532 93.5919 94.0928 94.6265 93.3004 95.595C92.508 96.5635 91.6495 97.466 90.725 98.3024C89.8006 99.0948 88.9641 99.7772 88.2157 100.349C87.4233 100.966 86.4988 101.626 85.4423 102.331C84.3857 103.035 83.3512 103.695 82.3387 104.312C81.3701 104.928 80.5117 105.5 79.7633 106.028C79.0149 106.513 78.5527 106.843 78.3766 107.019L76.4616 108.538C76.2415 108.714 75.9773 108.824 75.6692 108.868C75.405 108.912 75.1849 108.934 75.0088 108.934C74.7007 108.934 74.4585 108.78 74.2824 108.472C74.1063 108.12 74.0183 107.767 74.0183 107.415C74.0183 107.151 74.2604 106.689 74.7447 106.028C75.273 105.324 75.8673 104.73 76.5276 104.246C77.188 103.761 78.0024 103.277 78.9709 102.793C79.9394 102.308 81.2601 101.538 82.933 100.482C83.7694 99.9533 84.7819 99.2709 85.9706 98.4345C87.1592 97.554 88.2818 96.6295 89.3383 95.661C90.3949 94.6485 91.2973 93.6139 92.0457 92.5574C92.7941 91.4568 93.1683 90.4003 93.1683 89.3877C93.1683 88.9915 92.6841 88.5953 91.7156 88.1991C90.7911 87.7589 89.4704 87.5388 87.7535 87.5388C85.9926 87.5388 84.1436 87.8029 82.2066 88.3312C80.2696 88.8595 78.4646 89.4318 76.7917 90.0481C75.1629 90.6644 73.7542 91.2367 72.5655 91.765C71.3769 92.2932 70.6505 92.5574 70.3864 92.5574C70.5185 93.5699 70.6725 94.8246 70.8486 96.3214C71.0688 97.7741 71.2889 99.1829 71.509 100.548C71.7291 102.132 71.9712 103.783 72.2354 105.5H72.4995C72.5875 105.94 72.7636 106.579 73.0278 107.415C73.2919 108.252 73.424 108.912 73.424 109.396C73.424 110.101 73.1598 110.453 72.6316 110.453C72.3674 110.453 72.0593 110.211 71.7071 109.726C71.3989 109.242 71.0687 108.67 70.7166 108.009C70.4084 107.349 70.1223 106.711 69.8581 106.094C69.638 105.434 69.4839 104.972 69.3959 104.708C68.9997 103.255 68.6035 101.582 68.2073 99.6891C67.8551 97.7961 67.5249 95.9031 67.2167 94.0101C66.9526 92.0731 66.7325 90.2682 66.5564 88.5953C66.4243 86.8784 66.3583 85.4697 66.3583 84.3691C66.3583 84.0609 66.4243 83.7968 66.5564 83.5767C66.7325 83.3566 66.8205 83.1365 66.8205 82.9163C66.8205 82.6962 66.7545 82.5421 66.6224 82.4541C66.5344 82.322 66.4904 82.1239 66.4904 81.8598C66.4904 81.7277 66.5124 81.5956 66.5564 81.4636C66.6444 81.2875 66.8425 81.1994 67.1507 81.1994C67.4589 81.2875 67.745 81.3315 68.0091 81.3315C68.3173 81.3315 68.5814 81.3975 68.8016 81.5296C69.0217 81.6177 69.1978 81.7937 69.3298 82.0579C69.4619 82.322 69.5279 82.7402 69.5279 83.3125V83.7088C69.5279 83.7968 69.5059 83.9069 69.4619 84.0389C69.4619 84.127 69.4619 84.215 69.4619 84.3031C69.4619 85.0515 69.4839 85.6458 69.5279 86.086C69.572 86.5262 69.638 86.7463 69.726 86.7463C69.8581 86.7463 70.3204 86.4382 71.1128 85.8219C71.9492 85.1615 72.9397 84.3471 74.0843 83.3786C75.2289 82.4101 76.4616 81.3315 77.7823 80.1429C79.147 78.9543 80.4457 77.8097 81.6783 76.7091C82.1626 76.2689 82.8229 75.6525 83.6593 74.8601C84.4958 74.0237 85.3102 73.1432 86.1026 72.2187C86.9391 71.2943 87.6434 70.4358 88.2157 69.6434C88.8321 68.8069 89.1402 68.1686 89.1402 67.7284C89.1402 67.2882 89.0081 67.068 88.744 67.068C88.3918 67.068 87.6434 67.2221 86.4988 67.5303C85.3542 67.8384 84.0556 68.2567 82.6028 68.7849C81.15 69.2692 79.6532 69.8415 78.1124 70.5018C76.5716 71.1622 75.2069 71.8445 74.0183 72.5489C72.7856 73.3853 71.553 74.3098 70.3204 75.3224C69.0877 76.3349 67.9651 77.3034 66.9526 78.2279C65.9841 79.1083 65.1697 79.8787 64.5093 80.5391C63.893 81.1554 63.5628 81.5076 63.5188 81.5956C63.4307 81.6837 63.3867 81.7717 63.3867 81.8598C63.3867 81.9478 63.4087 82.0799 63.4528 82.256C63.5408 82.3881 63.5848 82.4981 63.5848 82.5862C63.5848 82.7182 63.4968 82.8283 63.3207 82.9163C63.1446 83.0044 62.9465 83.0484 62.7264 83.0484C62.3742 83.0484 61.934 82.9824 61.4057 82.8503C60.8774 82.6742 60.6133 82.234 60.6133 81.5296C60.6133 80.9133 60.9655 80.1429 61.6698 79.2184C62.3742 78.2939 63.2767 77.3034 64.3772 76.2468C65.5218 75.1903 66.7765 74.1557 68.1412 73.1432C69.5059 72.0867 70.8486 71.1182 72.1693 70.2377C73.49 69.4013 74.9208 68.6088 76.4616 67.8605C78.0464 67.068 79.5872 66.3857 81.084 65.8134C82.6248 65.2411 84.0776 64.8008 85.4423 64.4927C86.807 64.1405 87.9296 63.9644 88.81 63.9644C89.1622 63.9644 89.5584 64.0084 89.9987 64.0965C90.4389 64.1845 90.8571 64.3166 91.2533 64.4927C91.6495 64.6688 91.9797 64.9109 92.2438 65.2191C92.508 65.4832 92.64 65.8134 92.64 66.2096C92.64 67.3982 92.2879 68.6309 91.5835 69.9075C90.8791 71.1402 89.9546 72.3948 88.81 73.6715C87.6654 74.9482 86.3668 76.2468 84.914 77.5675C83.5053 78.8442 82.0745 80.0989 80.6218 81.3315C79.213 82.5201 77.8483 83.6867 76.5276 84.8313C75.2069 85.9319 74.1063 86.9444 73.2259 87.8689C73.7101 87.6928 74.5025 87.4067 75.6031 87.0105C76.7037 86.5703 77.8923 86.152 79.169 85.7558C80.4897 85.3156 81.8104 84.9414 83.1311 84.6332C84.4518 84.3251 85.6184 84.171 86.6309 84.171C86.9391 84.171 87.5994 84.193 88.6119 84.237C89.6245 84.2811 90.681 84.4571 91.7816 84.7653C92.8822 85.0735 93.8727 85.5797 94.7532 86.2841C95.6336 86.9444 96.0738 87.8909 96.0738 89.1236ZM113.271 94.2083C113.271 94.6485 112.897 95.0887 112.149 95.5289C111.444 95.9252 110.63 96.2773 109.705 96.5855C108.781 96.8937 107.9 97.1578 107.064 97.3779C106.228 97.554 105.699 97.6421 105.479 97.6421C104.687 97.6421 104.136 97.598 103.828 97.51C103.564 97.4219 103.322 97.1358 103.102 96.6515C102.97 96.4754 102.838 96.2773 102.706 96.0572C102.574 95.7931 102.508 95.595 102.508 95.4629C102.508 95.2868 102.53 95.1768 102.574 95.1327C102.662 95.0887 102.838 95.0667 103.102 95.0667C103.586 95.0667 104.291 94.9566 105.215 94.7365C106.183 94.5164 107.13 94.2743 108.054 94.0101C109.023 93.746 109.903 93.5039 110.696 93.2838C111.488 93.0637 111.973 92.9536 112.149 92.9536C112.369 92.9536 112.611 93.1297 112.875 93.4819C113.139 93.79 113.271 94.0322 113.271 94.2083ZM142.911 89.1896C142.911 90.6864 142.647 92.1172 142.119 93.4819C141.591 94.8466 140.842 96.1673 139.874 97.4439C138.905 98.7206 137.761 99.9753 136.44 101.208C135.163 102.397 133.755 103.563 132.214 104.708C130.585 105.94 128.692 107.129 126.535 108.274C124.378 109.418 122.199 110.431 119.997 111.311C117.84 112.236 115.793 112.962 113.856 113.49C111.919 114.019 110.356 114.283 109.168 114.283C108.375 114.283 107.803 114.173 107.451 113.953C107.055 113.777 106.857 113.336 106.857 112.632C106.857 112.148 107.033 111.575 107.385 110.915C107.737 110.255 108.089 109.924 108.441 109.924C108.794 109.924 109.058 110.035 109.234 110.255C109.366 110.475 109.432 110.717 109.432 110.981C109.432 111.113 109.432 111.223 109.432 111.311C109.388 111.399 109.366 111.465 109.366 111.509V111.641C111.039 111.465 113.284 110.937 116.101 110.057C118.875 109.22 122.199 107.745 126.073 105.632C127.746 104.708 129.396 103.629 131.025 102.397C132.654 101.12 134.107 99.7772 135.384 98.3684C136.704 96.9157 137.761 95.4189 138.553 93.8781C139.346 92.2932 139.742 90.7524 139.742 89.2557C139.742 88.1991 139.192 87.1205 138.091 86.02C137.034 84.8754 135.67 83.8188 133.997 82.8503C132.368 81.8378 130.585 80.9793 128.648 80.275C126.711 79.5266 124.906 79.0203 123.233 78.7562C123.277 78.9763 123.343 79.5266 123.431 80.407C123.519 81.2435 123.651 82.234 123.827 83.3786C124.004 84.5232 124.202 85.7558 124.422 87.0765C124.686 88.3532 124.972 89.5418 125.28 90.6424C125.632 91.875 125.853 92.7995 125.941 93.4158C126.073 93.9881 126.161 94.4724 126.205 94.8686C126.249 95.3088 126.315 95.8811 126.403 96.5855C126.535 97.2458 126.623 97.9502 126.667 98.6986C126.755 99.403 126.821 100.085 126.865 100.746C126.953 101.362 126.997 101.846 126.997 102.198C126.997 102.595 126.909 103.013 126.733 103.453C126.601 103.893 126.425 104.113 126.205 104.113C125.676 104.113 125.302 103.937 125.082 103.585C124.906 103.189 124.73 102.551 124.554 101.67C124.422 100.746 124.246 99.5571 124.026 98.1043C123.805 96.6515 123.387 94.8686 122.771 92.7555C121.89 89.8059 121.274 87.0325 120.922 84.4351C120.57 81.7938 120.35 79.7027 120.262 78.1618C120.262 78.1618 120.152 78.1618 119.931 78.1618C119.755 78.1178 119.491 78.0958 119.139 78.0958C118.831 78.0958 118.457 78.0958 118.016 78.0958C117.62 78.0518 117.246 78.0298 116.894 78.0298C116.145 78.0298 115.463 78.1839 114.847 78.492C114.23 78.7562 113.724 79.0643 113.328 79.4165C112.888 79.7687 112.536 80.0989 112.271 80.407C111.963 80.6712 111.765 80.8032 111.677 80.8032C111.369 80.8032 110.951 80.7372 110.422 80.6051C109.85 80.429 109.564 80.1209 109.564 79.6806C109.564 79.1083 109.85 78.536 110.422 77.9637C110.951 77.3474 111.611 76.8191 112.403 76.3789C113.196 75.8947 114.054 75.5205 114.979 75.2563C115.903 74.9482 116.762 74.7941 117.554 74.7941C118.875 74.7941 120.416 74.9702 122.177 75.3224C123.938 75.6745 125.742 76.1588 127.591 76.7751C129.484 77.3914 131.333 78.1398 133.138 79.0203C134.987 79.9008 136.638 80.8693 138.091 81.9258C139.544 82.9824 140.71 84.127 141.591 85.3596C142.471 86.5923 142.911 87.8689 142.911 89.1896Z" fill="#0C9CE9"/>
<path d="M203.134 57.1822V80.4819H199.462V57.1822H203.134ZM188.369 59.0057V64.5014H192.75V59.0057H196.347V75.1129H184.697V59.0057H188.369ZM188.369 72.1497H192.75V67.3125H188.369V72.1497ZM225.547 57.1822V80.4819H221.875V57.1822H225.547ZM218.76 59.1829V62.1207H211.036V71.9471C215.062 71.9345 217.506 71.8332 220.254 71.3393L220.583 74.3024C217.519 74.9356 214.581 75.0116 209.44 75.0116H207.414V59.1829H218.76Z" fill="#0C9CE9"/>
<path d="M247.125 63.8429V66.0716H231.271V58.1952H234.057V63.8429H247.125ZM249.48 68.7308V70.9594H228.561V68.7308H249.48ZM247.277 77.4428V79.7222H231.068V72.9855H233.879V77.4428H247.277ZM275.237 57.3595V62.9818H278.402V65.2865H275.237V70.7315H272.4V57.3595H275.237ZM267.765 71.162C272.451 71.162 275.414 72.8335 275.439 75.67C275.414 78.5572 272.451 80.2287 267.765 80.2287C263.029 80.2287 260.016 78.5572 260.016 75.67C260.016 72.8335 263.029 71.162 267.765 71.162ZM267.765 73.416C264.625 73.416 262.776 74.2011 262.802 75.67C262.776 77.1642 264.625 77.9747 267.765 77.9747C270.855 77.9747 272.704 77.1642 272.704 75.67C272.704 74.2011 270.855 73.416 267.765 73.416ZM268.297 58.9803V61.2597H260.826V67.0086C265.207 66.9959 267.651 66.8693 270.349 66.2995L270.627 68.5535C267.664 69.1866 264.954 69.2879 259.889 69.2879H258.04V58.9803H268.297ZM298.638 57.3848V74.0998H295.801V57.3848H298.638ZM299.271 77.5188V79.7981H283.493V72.5043H286.329V77.5188H299.271ZM288.102 60.8798C288.102 64.0708 289.976 67.0846 293.598 68.3002L292.154 70.5289C289.546 69.6172 287.684 67.7937 286.684 65.4637C285.645 67.9583 283.759 69.9591 281.061 70.9341L279.593 68.7054C283.315 67.3885 285.19 64.1721 285.19 60.8798V58.6511H288.102V60.8798ZM312.389 57.714C317.607 57.714 320.62 59.107 320.646 61.6395C320.62 64.1974 317.607 65.565 312.389 65.5904C307.172 65.565 304.133 64.1974 304.133 61.6395C304.133 59.107 307.172 57.714 312.389 57.714ZM312.389 59.7908C308.894 59.7908 307.071 60.4492 307.096 61.6395C307.071 62.9058 308.894 63.4883 312.389 63.4883C315.935 63.4883 317.733 62.9058 317.733 61.6395C317.733 60.4492 315.935 59.7908 312.389 59.7908ZM322.849 66.806V69.06H301.981V66.806H322.849ZM320.24 70.6049V76.2019H307.223V77.8987H320.874V80.0514H304.462V74.2011H317.48V72.6816H304.437V70.6049H320.24ZM348.605 57.3595V61.9688H351.796V64.2988H348.605V68.8574H345.794V57.3595H348.605ZM348.605 69.8451V75.8473H336.449V77.7467H349.314V79.9754H333.663V73.7959H345.794V72.0231H333.638V69.8451H348.605ZM336.879 58.1193C340.374 58.1193 342.932 60.2213 342.958 63.2604C342.932 66.2488 340.374 68.3762 336.879 68.3762C333.384 68.3762 330.776 66.2488 330.801 63.2604C330.776 60.2213 333.384 58.1193 336.879 58.1193ZM336.879 60.3986C334.955 60.3986 333.536 61.5129 333.562 63.2604C333.536 64.9825 334.955 66.1475 336.879 66.1475C338.804 66.1475 340.222 64.9825 340.222 63.2604C340.222 61.5129 338.804 60.3986 336.879 60.3986ZM371.652 59.4615V61.6649C371.626 64.5014 371.626 67.6924 370.74 72.479L367.904 72.1751C368.79 67.7177 368.79 64.4634 368.815 61.7155H355.139V59.4615H371.652ZM373.83 74.9862V77.2909H352.961V74.9862H360.66V67.0339H363.446V74.9862H373.83ZM400.599 57.3848V70.073H397.763V57.3848H400.599ZM390.064 60.3986C390.064 63.2857 391.988 66.0209 395.61 67.0593L394.268 69.3133C391.596 68.4775 389.671 66.7807 388.645 64.6027C387.594 66.958 385.644 68.8194 382.896 69.6931L381.529 67.4645C385.226 66.3248 387.151 63.4123 387.151 60.3986V58.1952H390.064V60.3986ZM400.726 71.2127V73.4414H397.839V77.6961H400.928V79.9754H384.922V77.6961H388.038V73.4414H385.125V71.2127H400.726ZM390.823 77.6961H395.053V73.4414H390.823V77.6961ZM410.198 59.031C413.3 59.031 415.592 61.6142 415.997 65.793H420.353V57.3595H423.139V80.2793H420.353V68.0723H416.023C415.719 72.4916 413.389 75.2142 410.198 75.2142C406.753 75.2142 404.322 72.0991 404.322 67.1099C404.322 62.1714 406.753 59.031 410.198 59.031ZM410.198 61.5636C408.298 61.5636 407.007 63.615 407.032 67.1099C407.007 70.6302 408.298 72.6816 410.198 72.6816C412.097 72.6816 413.363 70.6302 413.389 67.1099C413.363 63.615 412.097 61.5636 410.198 61.5636ZM447.275 75.1635V77.4682H426.355V75.1635H431.193V69.3639C429.369 68.3256 428.268 66.692 428.28 64.6533C428.255 61.0064 431.851 58.6004 436.764 58.6004C441.703 58.6004 445.299 61.0064 445.299 64.6533C445.299 66.654 444.235 68.2622 442.463 69.3133V75.1635H447.275ZM436.764 60.8291C433.345 60.8291 431.015 62.2727 431.041 64.6533C431.015 67.0086 433.345 68.4775 436.764 68.4775C440.183 68.4775 442.539 67.0086 442.539 64.6533C442.539 62.2727 440.183 60.8291 436.764 60.8291ZM433.979 75.1635H439.601V70.3769C438.727 70.5795 437.777 70.6808 436.764 70.6808C435.777 70.6808 434.84 70.5795 433.979 70.4023V75.1635ZM451.555 78.2026C450.466 78.2026 449.579 77.3162 449.579 76.2272C449.579 75.1635 450.466 74.2771 451.555 74.2771C452.593 74.2771 453.505 75.1635 453.505 76.2272C453.505 77.3162 452.593 78.2026 451.555 78.2026Z" fill="#595959"/>
<path d="M247.125 63.8429V66.0716H231.271V58.1952H234.057V63.8429H247.125ZM249.48 68.7308V70.9594H228.561V68.7308H249.48ZM247.277 77.4428V79.7222H231.068V72.9855H233.879V77.4428H247.277ZM275.237 57.3595V62.9818H278.402V65.2865H275.237V70.7315H272.4V57.3595H275.237ZM267.765 71.162C272.451 71.162 275.414 72.8335 275.439 75.67C275.414 78.5572 272.451 80.2287 267.765 80.2287C263.029 80.2287 260.016 78.5572 260.016 75.67C260.016 72.8335 263.029 71.162 267.765 71.162ZM267.765 73.416C264.625 73.416 262.776 74.2011 262.802 75.67C262.776 77.1642 264.625 77.9747 267.765 77.9747C270.855 77.9747 272.704 77.1642 272.704 75.67C272.704 74.2011 270.855 73.416 267.765 73.416ZM268.297 58.9803V61.2597H260.826V67.0086C265.207 66.9959 267.651 66.8693 270.349 66.2995L270.627 68.5535C267.664 69.1866 264.954 69.2879 259.889 69.2879H258.04V58.9803H268.297ZM298.638 57.3848V74.0998H295.801V57.3848H298.638ZM299.271 77.5188V79.7981H283.493V72.5043H286.329V77.5188H299.271ZM288.102 60.8798C288.102 64.0708 289.976 67.0846 293.598 68.3002L292.154 70.5289C289.546 69.6172 287.684 67.7937 286.684 65.4637C285.645 67.9583 283.759 69.9591 281.061 70.9341L279.593 68.7054C283.315 67.3885 285.19 64.1721 285.19 60.8798V58.6511H288.102V60.8798ZM312.389 57.714C317.607 57.714 320.62 59.107 320.646 61.6395C320.62 64.1974 317.607 65.565 312.389 65.5904C307.172 65.565 304.133 64.1974 304.133 61.6395C304.133 59.107 307.172 57.714 312.389 57.714ZM312.389 59.7908C308.894 59.7908 307.071 60.4492 307.096 61.6395C307.071 62.9058 308.894 63.4883 312.389 63.4883C315.935 63.4883 317.733 62.9058 317.733 61.6395C317.733 60.4492 315.935 59.7908 312.389 59.7908ZM322.849 66.806V69.06H301.981V66.806H322.849ZM320.24 70.6049V76.2019H307.223V77.8987H320.874V80.0514H304.462V74.2011H317.48V72.6816H304.437V70.6049H320.24ZM348.605 57.3595V61.9688H351.796V64.2988H348.605V68.8574H345.794V57.3595H348.605ZM348.605 69.8451V75.8473H336.449V77.7467H349.314V79.9754H333.663V73.7959H345.794V72.0231H333.638V69.8451H348.605ZM336.879 58.1193C340.374 58.1193 342.932 60.2213 342.958 63.2604C342.932 66.2488 340.374 68.3762 336.879 68.3762C333.384 68.3762 330.776 66.2488 330.801 63.2604C330.776 60.2213 333.384 58.1193 336.879 58.1193ZM336.879 60.3986C334.955 60.3986 333.536 61.5129 333.562 63.2604C333.536 64.9825 334.955 66.1475 336.879 66.1475C338.804 66.1475 340.222 64.9825 340.222 63.2604C340.222 61.5129 338.804 60.3986 336.879 60.3986ZM371.652 59.4615V61.6649C371.626 64.5014 371.626 67.6924 370.74 72.479L367.904 72.1751C368.79 67.7177 368.79 64.4634 368.815 61.7155H355.139V59.4615H371.652ZM373.83 74.9862V77.2909H352.961V74.9862H360.66V67.0339H363.446V74.9862H373.83ZM400.599 57.3848V70.073H397.763V57.3848H400.599ZM390.064 60.3986C390.064 63.2857 391.988 66.0209 395.61 67.0593L394.268 69.3133C391.596 68.4775 389.671 66.7807 388.645 64.6027C387.594 66.958 385.644 68.8194 382.896 69.6931L381.529 67.4645C385.226 66.3248 387.151 63.4123 387.151 60.3986V58.1952H390.064V60.3986ZM400.726 71.2127V73.4414H397.839V77.6961H400.928V79.9754H384.922V77.6961H388.038V73.4414H385.125V71.2127H400.726ZM390.823 77.6961H395.053V73.4414H390.823V77.6961ZM410.198 59.031C413.3 59.031 415.592 61.6142 415.997 65.793H420.353V57.3595H423.139V80.2793H420.353V68.0723H416.023C415.719 72.4916 413.389 75.2142 410.198 75.2142C406.753 75.2142 404.322 72.0991 404.322 67.1099C404.322 62.1714 406.753 59.031 410.198 59.031ZM410.198 61.5636C408.298 61.5636 407.007 63.615 407.032 67.1099C407.007 70.6302 408.298 72.6816 410.198 72.6816C412.097 72.6816 413.363 70.6302 413.389 67.1099C413.363 63.615 412.097 61.5636 410.198 61.5636ZM447.275 75.1635V77.4682H426.355V75.1635H431.193V69.3639C429.369 68.3256 428.268 66.692 428.28 64.6533C428.255 61.0064 431.851 58.6004 436.764 58.6004C441.703 58.6004 445.299 61.0064 445.299 64.6533C445.299 66.654 444.235 68.2622 442.463 69.3133V75.1635H447.275ZM436.764 60.8291C433.345 60.8291 431.015 62.2727 431.041 64.6533C431.015 67.0086 433.345 68.4775 436.764 68.4775C440.183 68.4775 442.539 67.0086 442.539 64.6533C442.539 62.2727 440.183 60.8291 436.764 60.8291ZM433.979 75.1635H439.601V70.3769C438.727 70.5795 437.777 70.6808 436.764 70.6808C435.777 70.6808 434.84 70.5795 433.979 70.4023V75.1635ZM451.555 78.2026C450.466 78.2026 449.579 77.3162 449.579 76.2272C449.579 75.1635 450.466 74.2771 451.555 74.2771C452.593 74.2771 453.505 75.1635 453.505 76.2272C453.505 77.3162 452.593 78.2026 451.555 78.2026Z" fill="black" fill-opacity="0.2"/>
<path d="M247.125 63.8429V66.0716H231.271V58.1952H234.057V63.8429H247.125ZM249.48 68.7308V70.9594H228.561V68.7308H249.48ZM247.277 77.4428V79.7222H231.068V72.9855H233.879V77.4428H247.277ZM275.237 57.3595V62.9818H278.402V65.2865H275.237V70.7315H272.4V57.3595H275.237ZM267.765 71.162C272.451 71.162 275.414 72.8335 275.439 75.67C275.414 78.5572 272.451 80.2287 267.765 80.2287C263.029 80.2287 260.016 78.5572 260.016 75.67C260.016 72.8335 263.029 71.162 267.765 71.162ZM267.765 73.416C264.625 73.416 262.776 74.2011 262.802 75.67C262.776 77.1642 264.625 77.9747 267.765 77.9747C270.855 77.9747 272.704 77.1642 272.704 75.67C272.704 74.2011 270.855 73.416 267.765 73.416ZM268.297 58.9803V61.2597H260.826V67.0086C265.207 66.9959 267.651 66.8693 270.349 66.2995L270.627 68.5535C267.664 69.1866 264.954 69.2879 259.889 69.2879H258.04V58.9803H268.297ZM298.638 57.3848V74.0998H295.801V57.3848H298.638ZM299.271 77.5188V79.7981H283.493V72.5043H286.329V77.5188H299.271ZM288.102 60.8798C288.102 64.0708 289.976 67.0846 293.598 68.3002L292.154 70.5289C289.546 69.6172 287.684 67.7937 286.684 65.4637C285.645 67.9583 283.759 69.9591 281.061 70.9341L279.593 68.7054C283.315 67.3885 285.19 64.1721 285.19 60.8798V58.6511H288.102V60.8798ZM312.389 57.714C317.607 57.714 320.62 59.107 320.646 61.6395C320.62 64.1974 317.607 65.565 312.389 65.5904C307.172 65.565 304.133 64.1974 304.133 61.6395C304.133 59.107 307.172 57.714 312.389 57.714ZM312.389 59.7908C308.894 59.7908 307.071 60.4492 307.096 61.6395C307.071 62.9058 308.894 63.4883 312.389 63.4883C315.935 63.4883 317.733 62.9058 317.733 61.6395C317.733 60.4492 315.935 59.7908 312.389 59.7908ZM322.849 66.806V69.06H301.981V66.806H322.849ZM320.24 70.6049V76.2019H307.223V77.8987H320.874V80.0514H304.462V74.2011H317.48V72.6816H304.437V70.6049H320.24ZM348.605 57.3595V61.9688H351.796V64.2988H348.605V68.8574H345.794V57.3595H348.605ZM348.605 69.8451V75.8473H336.449V77.7467H349.314V79.9754H333.663V73.7959H345.794V72.0231H333.638V69.8451H348.605ZM336.879 58.1193C340.374 58.1193 342.932 60.2213 342.958 63.2604C342.932 66.2488 340.374 68.3762 336.879 68.3762C333.384 68.3762 330.776 66.2488 330.801 63.2604C330.776 60.2213 333.384 58.1193 336.879 58.1193ZM336.879 60.3986C334.955 60.3986 333.536 61.5129 333.562 63.2604C333.536 64.9825 334.955 66.1475 336.879 66.1475C338.804 66.1475 340.222 64.9825 340.222 63.2604C340.222 61.5129 338.804 60.3986 336.879 60.3986ZM371.652 59.4615V61.6649C371.626 64.5014 371.626 67.6924 370.74 72.479L367.904 72.1751C368.79 67.7177 368.79 64.4634 368.815 61.7155H355.139V59.4615H371.652ZM373.83 74.9862V77.2909H352.961V74.9862H360.66V67.0339H363.446V74.9862H373.83ZM400.599 57.3848V70.073H397.763V57.3848H400.599ZM390.064 60.3986C390.064 63.2857 391.988 66.0209 395.61 67.0593L394.268 69.3133C391.596 68.4775 389.671 66.7807 388.645 64.6027C387.594 66.958 385.644 68.8194 382.896 69.6931L381.529 67.4645C385.226 66.3248 387.151 63.4123 387.151 60.3986V58.1952H390.064V60.3986ZM400.726 71.2127V73.4414H397.839V77.6961H400.928V79.9754H384.922V77.6961H388.038V73.4414H385.125V71.2127H400.726ZM390.823 77.6961H395.053V73.4414H390.823V77.6961ZM410.198 59.031C413.3 59.031 415.592 61.6142 415.997 65.793H420.353V57.3595H423.139V80.2793H420.353V68.0723H416.023C415.719 72.4916 413.389 75.2142 410.198 75.2142C406.753 75.2142 404.322 72.0991 404.322 67.1099C404.322 62.1714 406.753 59.031 410.198 59.031ZM410.198 61.5636C408.298 61.5636 407.007 63.615 407.032 67.1099C407.007 70.6302 408.298 72.6816 410.198 72.6816C412.097 72.6816 413.363 70.6302 413.389 67.1099C413.363 63.615 412.097 61.5636 410.198 61.5636ZM447.275 75.1635V77.4682H426.355V75.1635H431.193V69.3639C429.369 68.3256 428.268 66.692 428.28 64.6533C428.255 61.0064 431.851 58.6004 436.764 58.6004C441.703 58.6004 445.299 61.0064 445.299 64.6533C445.299 66.654 444.235 68.2622 442.463 69.3133V75.1635H447.275ZM436.764 60.8291C433.345 60.8291 431.015 62.2727 431.041 64.6533C431.015 67.0086 433.345 68.4775 436.764 68.4775C440.183 68.4775 442.539 67.0086 442.539 64.6533C442.539 62.2727 440.183 60.8291 436.764 60.8291ZM433.979 75.1635H439.601V70.3769C438.727 70.5795 437.777 70.6808 436.764 70.6808C435.777 70.6808 434.84 70.5795 433.979 70.4023V75.1635ZM451.555 78.2026C450.466 78.2026 449.579 77.3162 449.579 76.2272C449.579 75.1635 450.466 74.2771 451.555 74.2771C452.593 74.2771 453.505 75.1635 453.505 76.2272C453.505 77.3162 452.593 78.2026 451.555 78.2026Z" fill="black" fill-opacity="0.2"/>
<path d="M247.125 63.8429V66.0716H231.271V58.1952H234.057V63.8429H247.125ZM249.48 68.7308V70.9594H228.561V68.7308H249.48ZM247.277 77.4428V79.7222H231.068V72.9855H233.879V77.4428H247.277ZM275.237 57.3595V62.9818H278.402V65.2865H275.237V70.7315H272.4V57.3595H275.237ZM267.765 71.162C272.451 71.162 275.414 72.8335 275.439 75.67C275.414 78.5572 272.451 80.2287 267.765 80.2287C263.029 80.2287 260.016 78.5572 260.016 75.67C260.016 72.8335 263.029 71.162 267.765 71.162ZM267.765 73.416C264.625 73.416 262.776 74.2011 262.802 75.67C262.776 77.1642 264.625 77.9747 267.765 77.9747C270.855 77.9747 272.704 77.1642 272.704 75.67C272.704 74.2011 270.855 73.416 267.765 73.416ZM268.297 58.9803V61.2597H260.826V67.0086C265.207 66.9959 267.651 66.8693 270.349 66.2995L270.627 68.5535C267.664 69.1866 264.954 69.2879 259.889 69.2879H258.04V58.9803H268.297ZM298.638 57.3848V74.0998H295.801V57.3848H298.638ZM299.271 77.5188V79.7981H283.493V72.5043H286.329V77.5188H299.271ZM288.102 60.8798C288.102 64.0708 289.976 67.0846 293.598 68.3002L292.154 70.5289C289.546 69.6172 287.684 67.7937 286.684 65.4637C285.645 67.9583 283.759 69.9591 281.061 70.9341L279.593 68.7054C283.315 67.3885 285.19 64.1721 285.19 60.8798V58.6511H288.102V60.8798ZM312.389 57.714C317.607 57.714 320.62 59.107 320.646 61.6395C320.62 64.1974 317.607 65.565 312.389 65.5904C307.172 65.565 304.133 64.1974 304.133 61.6395C304.133 59.107 307.172 57.714 312.389 57.714ZM312.389 59.7908C308.894 59.7908 307.071 60.4492 307.096 61.6395C307.071 62.9058 308.894 63.4883 312.389 63.4883C315.935 63.4883 317.733 62.9058 317.733 61.6395C317.733 60.4492 315.935 59.7908 312.389 59.7908ZM322.849 66.806V69.06H301.981V66.806H322.849ZM320.24 70.6049V76.2019H307.223V77.8987H320.874V80.0514H304.462V74.2011H317.48V72.6816H304.437V70.6049H320.24ZM348.605 57.3595V61.9688H351.796V64.2988H348.605V68.8574H345.794V57.3595H348.605ZM348.605 69.8451V75.8473H336.449V77.7467H349.314V79.9754H333.663V73.7959H345.794V72.0231H333.638V69.8451H348.605ZM336.879 58.1193C340.374 58.1193 342.932 60.2213 342.958 63.2604C342.932 66.2488 340.374 68.3762 336.879 68.3762C333.384 68.3762 330.776 66.2488 330.801 63.2604C330.776 60.2213 333.384 58.1193 336.879 58.1193ZM336.879 60.3986C334.955 60.3986 333.536 61.5129 333.562 63.2604C333.536 64.9825 334.955 66.1475 336.879 66.1475C338.804 66.1475 340.222 64.9825 340.222 63.2604C340.222 61.5129 338.804 60.3986 336.879 60.3986ZM371.652 59.4615V61.6649C371.626 64.5014 371.626 67.6924 370.74 72.479L367.904 72.1751C368.79 67.7177 368.79 64.4634 368.815 61.7155H355.139V59.4615H371.652ZM373.83 74.9862V77.2909H352.961V74.9862H360.66V67.0339H363.446V74.9862H373.83ZM400.599 57.3848V70.073H397.763V57.3848H400.599ZM390.064 60.3986C390.064 63.2857 391.988 66.0209 395.61 67.0593L394.268 69.3133C391.596 68.4775 389.671 66.7807 388.645 64.6027C387.594 66.958 385.644 68.8194 382.896 69.6931L381.529 67.4645C385.226 66.3248 387.151 63.4123 387.151 60.3986V58.1952H390.064V60.3986ZM400.726 71.2127V73.4414H397.839V77.6961H400.928V79.9754H384.922V77.6961H388.038V73.4414H385.125V71.2127H400.726ZM390.823 77.6961H395.053V73.4414H390.823V77.6961ZM410.198 59.031C413.3 59.031 415.592 61.6142 415.997 65.793H420.353V57.3595H423.139V80.2793H420.353V68.0723H416.023C415.719 72.4916 413.389 75.2142 410.198 75.2142C406.753 75.2142 404.322 72.0991 404.322 67.1099C404.322 62.1714 406.753 59.031 410.198 59.031ZM410.198 61.5636C408.298 61.5636 407.007 63.615 407.032 67.1099C407.007 70.6302 408.298 72.6816 410.198 72.6816C412.097 72.6816 413.363 70.6302 413.389 67.1099C413.363 63.615 412.097 61.5636 410.198 61.5636ZM447.275 75.1635V77.4682H426.355V75.1635H431.193V69.3639C429.369 68.3256 428.268 66.692 428.28 64.6533C428.255 61.0064 431.851 58.6004 436.764 58.6004C441.703 58.6004 445.299 61.0064 445.299 64.6533C445.299 66.654 444.235 68.2622 442.463 69.3133V75.1635H447.275ZM436.764 60.8291C433.345 60.8291 431.015 62.2727 431.041 64.6533C431.015 67.0086 433.345 68.4775 436.764 68.4775C440.183 68.4775 442.539 67.0086 442.539 64.6533C442.539 62.2727 440.183 60.8291 436.764 60.8291ZM433.979 75.1635H439.601V70.3769C438.727 70.5795 437.777 70.6808 436.764 70.6808C435.777 70.6808 434.84 70.5795 433.979 70.4023V75.1635ZM451.555 78.2026C450.466 78.2026 449.579 77.3162 449.579 76.2272C449.579 75.1635 450.466 74.2771 451.555 74.2771C452.593 74.2771 453.505 75.1635 453.505 76.2272C453.505 77.3162 452.593 78.2026 451.555 78.2026Z" fill="black" fill-opacity="0.2"/>
<path d="M247.125 63.8429V66.0716H231.271V58.1952H234.057V63.8429H247.125ZM249.48 68.7308V70.9594H228.561V68.7308H249.48ZM247.277 77.4428V79.7222H231.068V72.9855H233.879V77.4428H247.277ZM275.237 57.3595V62.9818H278.402V65.2865H275.237V70.7315H272.4V57.3595H275.237ZM267.765 71.162C272.451 71.162 275.414 72.8335 275.439 75.67C275.414 78.5572 272.451 80.2287 267.765 80.2287C263.029 80.2287 260.016 78.5572 260.016 75.67C260.016 72.8335 263.029 71.162 267.765 71.162ZM267.765 73.416C264.625 73.416 262.776 74.2011 262.802 75.67C262.776 77.1642 264.625 77.9747 267.765 77.9747C270.855 77.9747 272.704 77.1642 272.704 75.67C272.704 74.2011 270.855 73.416 267.765 73.416ZM268.297 58.9803V61.2597H260.826V67.0086C265.207 66.9959 267.651 66.8693 270.349 66.2995L270.627 68.5535C267.664 69.1866 264.954 69.2879 259.889 69.2879H258.04V58.9803H268.297ZM298.638 57.3848V74.0998H295.801V57.3848H298.638ZM299.271 77.5188V79.7981H283.493V72.5043H286.329V77.5188H299.271ZM288.102 60.8798C288.102 64.0708 289.976 67.0846 293.598 68.3002L292.154 70.5289C289.546 69.6172 287.684 67.7937 286.684 65.4637C285.645 67.9583 283.759 69.9591 281.061 70.9341L279.593 68.7054C283.315 67.3885 285.19 64.1721 285.19 60.8798V58.6511H288.102V60.8798ZM312.389 57.714C317.607 57.714 320.62 59.107 320.646 61.6395C320.62 64.1974 317.607 65.565 312.389 65.5904C307.172 65.565 304.133 64.1974 304.133 61.6395C304.133 59.107 307.172 57.714 312.389 57.714ZM312.389 59.7908C308.894 59.7908 307.071 60.4492 307.096 61.6395C307.071 62.9058 308.894 63.4883 312.389 63.4883C315.935 63.4883 317.733 62.9058 317.733 61.6395C317.733 60.4492 315.935 59.7908 312.389 59.7908ZM322.849 66.806V69.06H301.981V66.806H322.849ZM320.24 70.6049V76.2019H307.223V77.8987H320.874V80.0514H304.462V74.2011H317.48V72.6816H304.437V70.6049H320.24ZM348.605 57.3595V61.9688H351.796V64.2988H348.605V68.8574H345.794V57.3595H348.605ZM348.605 69.8451V75.8473H336.449V77.7467H349.314V79.9754H333.663V73.7959H345.794V72.0231H333.638V69.8451H348.605ZM336.879 58.1193C340.374 58.1193 342.932 60.2213 342.958 63.2604C342.932 66.2488 340.374 68.3762 336.879 68.3762C333.384 68.3762 330.776 66.2488 330.801 63.2604C330.776 60.2213 333.384 58.1193 336.879 58.1193ZM336.879 60.3986C334.955 60.3986 333.536 61.5129 333.562 63.2604C333.536 64.9825 334.955 66.1475 336.879 66.1475C338.804 66.1475 340.222 64.9825 340.222 63.2604C340.222 61.5129 338.804 60.3986 336.879 60.3986ZM371.652 59.4615V61.6649C371.626 64.5014 371.626 67.6924 370.74 72.479L367.904 72.1751C368.79 67.7177 368.79 64.4634 368.815 61.7155H355.139V59.4615H371.652ZM373.83 74.9862V77.2909H352.961V74.9862H360.66V67.0339H363.446V74.9862H373.83ZM400.599 57.3848V70.073H397.763V57.3848H400.599ZM390.064 60.3986C390.064 63.2857 391.988 66.0209 395.61 67.0593L394.268 69.3133C391.596 68.4775 389.671 66.7807 388.645 64.6027C387.594 66.958 385.644 68.8194 382.896 69.6931L381.529 67.4645C385.226 66.3248 387.151 63.4123 387.151 60.3986V58.1952H390.064V60.3986ZM400.726 71.2127V73.4414H397.839V77.6961H400.928V79.9754H384.922V77.6961H388.038V73.4414H385.125V71.2127H400.726ZM390.823 77.6961H395.053V73.4414H390.823V77.6961ZM410.198 59.031C413.3 59.031 415.592 61.6142 415.997 65.793H420.353V57.3595H423.139V80.2793H420.353V68.0723H416.023C415.719 72.4916 413.389 75.2142 410.198 75.2142C406.753 75.2142 404.322 72.0991 404.322 67.1099C404.322 62.1714 406.753 59.031 410.198 59.031ZM410.198 61.5636C408.298 61.5636 407.007 63.615 407.032 67.1099C407.007 70.6302 408.298 72.6816 410.198 72.6816C412.097 72.6816 413.363 70.6302 413.389 67.1099C413.363 63.615 412.097 61.5636 410.198 61.5636ZM447.275 75.1635V77.4682H426.355V75.1635H431.193V69.3639C429.369 68.3256 428.268 66.692 428.28 64.6533C428.255 61.0064 431.851 58.6004 436.764 58.6004C441.703 58.6004 445.299 61.0064 445.299 64.6533C445.299 66.654 444.235 68.2622 442.463 69.3133V75.1635H447.275ZM436.764 60.8291C433.345 60.8291 431.015 62.2727 431.041 64.6533C431.015 67.0086 433.345 68.4775 436.764 68.4775C440.183 68.4775 442.539 67.0086 442.539 64.6533C442.539 62.2727 440.183 60.8291 436.764 60.8291ZM433.979 75.1635H439.601V70.3769C438.727 70.5795 437.777 70.6808 436.764 70.6808C435.777 70.6808 434.84 70.5795 433.979 70.4023V75.1635ZM451.555 78.2026C450.466 78.2026 449.579 77.3162 449.579 76.2272C449.579 75.1635 450.466 74.2771 451.555 74.2771C452.593 74.2771 453.505 75.1635 453.505 76.2272C453.505 77.3162 452.593 78.2026 451.555 78.2026Z" fill="black" fill-opacity="0.2"/>
<path d="M195.109 107.328V121.359H193.625V107.328H195.109ZM185.781 108.5V112.094H189.547V108.5H191.016V118H184.297V108.5H185.781ZM185.781 116.781H189.547V113.266H185.781V116.781ZM208.938 107.328V121.359H207.453V107.328H208.938ZM204.938 108.625V109.859H199.734V116.656C202.391 116.648 204.086 116.578 206.062 116.219L206.219 117.453C204.125 117.828 202.297 117.922 199.391 117.922H198.234V108.625H204.938ZM222.078 107.328V112.906H224.25V114.141H222.078V121.312H220.594V107.328H222.078ZM218.422 108.797C218.406 112.844 216.625 116.453 212.016 118.734L211.188 117.578C214.695 115.828 216.602 113.297 216.906 110.031H211.891V108.797H218.422ZM236 108.266V114.297H229.453V108.266H236ZM230.906 109.453V113.109H234.547V109.453H230.906ZM239.906 107.328V110.578H241.938V111.812H239.906V115.266H238.422V107.328H239.906ZM240.125 116.047V117.234H236.297C236.5 118.562 238.32 119.789 240.703 120.141L240.156 121.281C238.031 120.953 236.281 119.977 235.469 118.641C234.672 119.984 232.93 120.953 230.812 121.266L230.266 120.125C232.664 119.789 234.445 118.602 234.688 117.234H230.828V116.047H240.125ZM254.062 111.422V112.609H244.422V107.828H245.891V111.422H254.062ZM255.531 114.375V115.562H242.719V114.375H255.531ZM254.156 119.781V121H244.312V116.891H245.797V119.781H254.156ZM272.078 107.344V117.516H270.594V107.344H272.078ZM272.5 119.828V121.031H262.922V116.484H264.422V119.828H272.5ZM264.484 108.281C266.594 108.281 268.203 109.719 268.203 111.75C268.203 113.812 266.594 115.234 264.484 115.234C262.375 115.234 260.75 113.812 260.75 111.75C260.75 109.719 262.375 108.281 264.484 108.281ZM264.484 109.578C263.172 109.578 262.203 110.469 262.203 111.75C262.203 113.062 263.172 113.938 264.484 113.938C265.766 113.938 266.75 113.062 266.75 111.75C266.75 110.469 265.766 109.578 264.484 109.578ZM285.859 107.75V108.875H283.828V111.297H285.797V112.438H275.531V111.297H277.516V108.875H275.469V107.75H285.859ZM287.062 113.469V114.641H274.297V113.469H287.062ZM285.453 115.734V118.938H277.297V120.062H285.844V121.188H275.844V117.891H283.984V116.844H275.828V115.734H285.453ZM278.984 111.297H282.344V108.875H278.984V111.297ZM299.406 107.844V111.656H291.156V113.266H299.703V114.469H289.672V110.516H297.891V109.047H289.625V107.844H299.406ZM300.922 115.797V116.984H295.234V121.359H293.75V116.984H288.109V115.797H300.922ZM313.625 107.344V117.625H312.141V112.375H309.406C309.086 114.062 307.641 115.203 305.828 115.203C303.719 115.203 302.156 113.75 302.156 111.703C302.156 109.656 303.719 108.219 305.828 108.219C307.688 108.219 309.156 109.406 309.438 111.156H312.141V107.344H313.625ZM314 119.828V121.031H304.531V116.578H306.016V119.828H314ZM305.828 109.516C304.531 109.516 303.578 110.391 303.578 111.703C303.578 113.016 304.531 113.922 305.828 113.922C307.094 113.922 308.047 113.016 308.047 111.703C308.047 110.391 307.094 109.516 305.828 109.516ZM320.828 110.891C320.828 113.453 322.266 116 324.406 116.969L323.5 118.156C321.906 117.359 320.711 115.773 320.094 113.859C319.477 115.875 318.25 117.578 316.641 118.422L315.703 117.219C317.875 116.188 319.328 113.484 319.328 110.891V108.5H320.828V110.891ZM327.453 107.328V121.359H325.984V113.188H322.859V111.984H325.984V107.328H327.453ZM338.328 108.156L334.688 121.703H333.203L336.844 108.156H338.328ZM347.828 110.891C347.812 113.375 349.25 115.906 351.344 116.922L350.422 118.109C348.898 117.32 347.719 115.75 347.109 113.875C346.477 115.875 345.25 117.547 343.656 118.375L342.734 117.172C344.891 116.141 346.344 113.453 346.344 110.891V108.5H347.828V110.891ZM353.875 107.328V112.906H356.125V114.172H353.875V121.328H352.391V107.328H353.875ZM361.688 109.906C361.688 111.688 362.922 113.312 365.047 113.984L364.344 115.141C362.75 114.633 361.586 113.578 360.969 112.25C360.359 113.781 359.133 114.992 357.453 115.578L356.688 114.391C358.875 113.672 360.188 111.859 360.203 109.922V109.531H357.125V108.328H364.703V109.531H361.688V109.906ZM367.797 107.328V110.797H369.828V112.016H367.797V115.734H366.312V107.328H367.797ZM363.281 116.078C366.172 116.078 367.922 117.031 367.922 118.672C367.922 120.328 366.172 121.312 363.281 121.297C360.359 121.312 358.578 120.328 358.578 118.672C358.578 117.031 360.359 116.078 363.281 116.078ZM363.281 117.25C361.25 117.25 360.047 117.766 360.062 118.672C360.047 119.609 361.25 120.125 363.281 120.125C365.297 120.125 366.469 119.609 366.469 118.672C366.469 117.766 365.297 117.25 363.281 117.25ZM382.219 107.328V115.234H380.75V107.328H382.219ZM372.969 108.141V113.047C375.227 113.031 377.211 112.867 379.312 112.422L379.516 113.656C377.203 114.125 375.094 114.297 372.641 114.297H371.484V108.141H372.969ZM382.219 115.875V121.141H373.047V115.875H382.219ZM374.5 117.047V119.953H380.766V117.047H374.5ZM390.828 107.562C393.984 107.562 395.828 108.406 395.828 109.969C395.828 111.531 393.984 112.391 390.828 112.391C387.672 112.391 385.828 111.531 385.828 109.969C385.828 108.406 387.672 107.562 390.828 107.562ZM390.828 108.656C388.594 108.656 387.359 109.141 387.375 109.969C387.359 110.828 388.594 111.281 390.828 111.281C393.062 111.281 394.297 110.828 394.297 109.969C394.297 109.141 393.062 108.656 390.828 108.656ZM397.219 113.25V114.438H384.453V113.25H397.219ZM395.609 115.516V118.797H387.453V120.047H396V121.188H386V117.719H394.141V116.625H385.984V115.516H395.609ZM414.953 115.766V116.984H409.297V121.344H407.828V116.984H402.188V115.766H414.953ZM413.734 109.016V110.219H409.312C409.398 111.766 411.508 113.273 414.172 113.609L413.641 114.797C411.391 114.484 409.477 113.43 408.578 112C407.664 113.445 405.734 114.484 403.484 114.797L402.938 113.609C405.602 113.273 407.727 111.797 407.828 110.219H403.391V109.016H407.828V107.328H409.297V109.016H413.734ZM420.922 110.656C420.922 112.422 422.234 114.047 424.391 114.719L423.672 115.891C422.062 115.383 420.844 114.32 420.219 112.953C419.594 114.422 418.383 115.562 416.734 116.109L416.016 114.953C418.156 114.266 419.453 112.547 419.453 110.656V110.328H416.406V109.125H419.453V107.422H420.938V109.125H423.969V110.328H420.922V110.656ZM427.688 107.344V117.766H426.203V112.781H423.484V111.578H426.203V107.344H427.688ZM428.062 119.828V121.031H418.594V116.844H420.078V119.828H428.062ZM436.766 109.641V110.844H429.812V109.641H432.562V107.734H434.031V109.641H436.766ZM433.297 111.688C435.078 111.688 436.328 113.016 436.344 114.906C436.328 116.812 435.078 118.156 433.297 118.156C431.547 118.156 430.25 116.812 430.266 114.906C430.25 113.016 431.547 111.688 433.297 111.688ZM433.297 112.922C432.281 112.922 431.578 113.75 431.578 114.906C431.578 116.094 432.281 116.891 433.297 116.891C434.297 116.891 435.031 116.094 435.031 114.906C435.031 113.75 434.297 112.922 433.297 112.922ZM441.828 107.328V121.328H440.422V114.375H438.812V120.672H437.406V107.641H438.812V113.156H440.422V107.328H441.828ZM455.016 113.969V115.188H445.266V108.578H454.891V109.797H446.734V113.969H455.016ZM456.484 118.25V119.484H443.672V118.25H456.484ZM464.672 108V111.547H459.672V113.047C462.32 113.039 464.016 112.969 466.062 112.656L466.203 113.781C464.047 114.141 462.25 114.219 459.359 114.219H458.219V110.469H463.219V109.141H458.172V108H464.672ZM469.109 115.25V118.688H461.422V120.031H469.578V121.188H459.953V117.594H467.594V116.406H459.906V115.25H469.109ZM469.109 107.328V114.672H467.625V107.328H469.109ZM483.359 107.328V121.328H481.953V107.328H483.359ZM480.406 107.688V120.641H479V114.141H476.266C475.43 115.766 474.102 117.188 472.125 118.344L471.281 117.281C474.25 115.516 475.68 113.164 475.938 110.281H471.938V109.062H477.406C477.398 110.43 477.211 111.734 476.781 112.953H479V107.688H480.406ZM497.969 118.344V119.578H485.156V118.344H488.219V114.688C487.07 114.055 486.375 113.047 486.375 111.797C486.375 109.594 488.531 108.141 491.531 108.141C494.547 108.141 496.703 109.594 496.703 111.797C496.703 113.031 496.031 114.023 494.906 114.656V118.344H497.969ZM491.531 109.328C489.328 109.328 487.812 110.281 487.812 111.797C487.812 113.297 489.328 114.281 491.531 114.281C493.719 114.281 495.266 113.297 495.266 111.797C495.266 110.281 493.719 109.328 491.531 109.328ZM489.688 118.344H493.406V115.219C492.836 115.367 492.203 115.438 491.531 115.438C490.875 115.438 490.25 115.367 489.688 115.234V118.344ZM501.562 108.688L501.422 116.734H499.875L499.734 108.688H501.562ZM500.656 120.109C500.047 120.109 499.531 119.609 499.547 119C499.531 118.391 500.047 117.891 500.656 117.891C501.25 117.891 501.766 118.391 501.766 119C501.766 119.609 501.25 120.109 500.656 120.109Z" fill="#929292"/>
</g>
<defs>
<filter id="filter0_f_1245_1554" x="666.695" y="-201.747" width="415.223" height="554.976" filterUnits="userSpaceOnUse" color-interpolation-filters="sRGB">
<feFlood flood-opacity="0" result="BackgroundImageFix"/>
<feBlend mode="normal" in="SourceGraphic" in2="BackgroundImageFix" result="shape"/>
<feGaussianBlur stdDeviation="27" result="effect1_foregroundBlur_1245_1554"/>
</filter>
<linearGradient id="paint0_linear_1245_1554" x1="874.307" y1="-147.773" x2="874.307" y2="299.255" gradientUnits="userSpaceOnUse">
<stop stop-color="white"/>
<stop offset="1" stop-color="#BFEAFF"/>
</linearGradient>
<linearGradient id="paint1_linear_1245_1554" x1="794.676" y1="24" x2="794.676" y2="204.359" gradientUnits="userSpaceOnUse">
<stop stop-color="#FF8282"/>
<stop offset="0.418269" stop-color="#FFD579"/>
</linearGradient>
<clipPath id="clip0_1245_1554">
<rect width="929" height="176" fill="white"/>
</clipPath>
</defs>
</svg>
