<svg width="159" height="168" viewBox="0 0 159 168" fill="none" xmlns="http://www.w3.org/2000/svg">
<path d="M156.582 50.5748C156.762 43.2856 140.178 42.5458 131.863 43.0871L126.045 61.5356C130.27 70.602 139.098 86.326 140.614 76.6913C142.508 64.6479 156.356 59.6862 156.582 50.5748Z" fill="#FFD579"/>
<path d="M44.5437 33.5286C65.9799 17.9305 109.453 -9.07156 118.602 3.03248C126.583 13.5905 118.144 19.8961 110.787 22.551C124.126 18.8601 145.925 15.4128 147.876 25.6311C150.005 36.7811 145.155 43.2978 142.464 45.1624L133.458 49.9954C138.579 52.7881 142.234 55.5381 143.681 57.9719C150.141 68.8335 138.885 91.3663 132.45 101.275C139.378 116.971 137.442 129.977 135.607 134.518C144.177 138.758 160.821 148.446 158.837 153.282C156.356 159.326 149.004 168.798 132.45 167.174C115.896 165.55 102.409 160.904 100.966 150.665C88.7099 146.654 56.4195 146.915 33.8953 147.748L35.5613 156.394C32.2383 156.123 23.8154 155.744 16.7068 156.394C7.82108 157.206 1.95759 144.757 0.108182 134.518C-1.3713 126.327 12.7416 116.49 19.9832 112.596C20.7433 96.831 23.5105 80.2426 23.5105 73.3079C23.5108 61.2917 35.1251 40.0656 42.0564 35.1487C42.7777 34.5399 43.611 34.0023 44.5437 33.5286Z" fill="url(#paint0_linear_892_1608)"/>
<path fill-rule="evenodd" clip-rule="evenodd" d="M33.0805 147.779C33.3505 147.768 33.622 147.758 33.895 147.748L35.5615 156.394C32.2387 156.123 23.8158 155.744 16.7071 156.394C7.82113 157.206 1.9573 144.756 0.107936 134.517C-1.37155 126.326 12.7417 116.49 19.9833 112.596C19.0971 130.977 20.9399 148.24 33.0805 147.779Z" fill="#FFD579"/>
<path d="M72.8789 71.5398L72.6762 71.6411C67.7782 74.0895 61.9287 73.6334 57.4695 70.4552C52.2513 66.7361 45.2323 66.7978 40.0802 70.6081L37.2555 72.6972C33.7333 75.3021 31.4986 79.2934 31.1188 83.6577C30.7272 88.1582 32.3472 92.6013 35.5436 95.7937L38.5325 98.7788C40.9992 101.242 43.9664 103.147 47.2333 104.364L50.2125 105.474C57.4537 108.172 65.3337 108.656 72.8506 106.864L74.1138 106.563L75.835 106.053C81.1881 104.468 86.2437 102.012 90.7989 98.7836L92.1582 97.5532C95.217 94.7846 96.9596 90.8496 96.9539 86.7239C96.9482 82.5902 95.188 78.6532 92.1112 75.8925L89.8 73.8187C85.1623 69.6574 78.4523 68.7537 72.8789 71.5398Z" fill="white" fill-opacity="0.9"/>
<path d="M37.9498 162.47C32.8015 162.47 27.2243 150.255 25.0792 144.148C31.4358 130.619 46.1562 109.499 54.1855 133.246C62.2148 156.993 58.7906 162.623 56.0748 162.47H37.9498Z" fill="#FFD579"/>
<path d="M84.2679 162.471C88.9803 162.471 94.0853 150.256 96.0488 144.149C90.2304 130.62 76.7562 109.5 69.4066 133.247C62.057 156.994 65.1914 162.624 67.6773 162.471H84.2679Z" fill="#FFD579"/>
<path d="M81.3059 46.2796C84.5758 46.4453 87.0923 49.2303 86.9267 52.5003L86.5696 59.5479C86.5695 59.5508 86.567 59.553 86.5641 59.5529V59.5529C86.5611 59.5527 86.5586 59.5551 86.5586 59.5581C86.5575 59.7233 86.5533 59.8891 86.5449 60.0555C86.1779 67.2993 78.9621 72.8209 70.4285 72.3886C68.4131 72.2865 66.5044 71.8612 64.7693 71.1758C62.5518 70.2999 60.0195 70.2239 57.7504 70.9557C55.7914 71.5874 53.6415 71.8853 51.4002 71.7717C42.8667 71.3393 36.2461 65.1165 36.6128 57.8729C36.627 57.5936 36.6526 57.3171 36.6868 57.0431C36.688 57.0339 36.6811 57.0257 36.6718 57.0252V57.0252C36.663 57.0247 36.6562 57.0172 36.6566 57.0084L37.0131 49.9715C37.1788 46.7016 39.9639 44.1851 43.2338 44.3507L81.3059 46.2796Z" fill="#653E3E"/>
<ellipse cx="45.7106" cy="83.2766" rx="2.1651" ry="2.43574" fill="#7F4343"/>
<ellipse cx="79.5402" cy="83.2766" rx="2.1651" ry="2.43574" fill="#7F4343"/>
<path d="M64.532 89.3213H57.7994C56.5784 89.3213 55.5886 90.3111 55.5886 91.532V92.3837C55.5886 93.9431 56.2235 95.4353 57.3471 96.5166L57.4987 96.6625C59.7398 98.8194 63.3181 98.7048 65.4167 96.409C66.3485 95.3896 66.8652 94.0584 66.8652 92.6773V91.6545C66.8652 90.3659 65.8206 89.3213 64.532 89.3213Z" fill="#FF6741"/>
<path d="M85.3413 51.3418L94.8587 57.1605" stroke="#653E3E" stroke-width="7.14436" stroke-linecap="round"/>
<path d="M95.6256 147.012C99.0086 138.637 105.351 119.515 103.655 110.024" stroke="#F2B839" stroke-width="4.74452" stroke-linecap="round"/>
<path d="M66.4955 142.772C67.5974 138.099 70.5134 127.61 73.3615 123.032" stroke="#F2B839" stroke-width="4.74452" stroke-linecap="round"/>
<path d="M56.1963 141.914C55.0457 137.761 51.7185 128.17 47.6138 123.032" stroke="#F2B839" stroke-width="4.74452" stroke-linecap="round"/>
<rect x="42.4368" y="48.2275" width="3.33787" height="3.33787" rx="1.66893" transform="rotate(1.24821 42.4368 48.2275)" fill="#FFF7F7"/>
<rect x="45.3596" y="51.0605" width="3.33787" height="3.33787" rx="1.66893" transform="rotate(1.24821 45.3596 51.0605)" fill="#FFF7F7"/>
<defs>
<linearGradient id="paint0_linear_892_1608" x1="79.4999" y1="0" x2="79.4999" y2="167.358" gradientUnits="userSpaceOnUse">
<stop stop-color="#FF8282"/>
<stop offset="0.418269" stop-color="#FFD579"/>
</linearGradient>
</defs>
</svg>
