<svg width="409" height="282" viewBox="0 0 409 282" fill="none" xmlns="http://www.w3.org/2000/svg">
<path d="M4.07492 85.2185C3.77091 72.9363 31.715 71.6898 45.725 72.6019L55.5295 103.687C48.4105 118.964 33.534 145.459 30.9803 129.225C27.7881 108.932 4.45494 100.571 4.07492 85.2185Z" fill="#FFD579"/>
<path d="M192.859 56.4902C156.739 30.2073 83.4869 -15.2852 68.0703 5.1103C54.6231 22.9005 68.8418 33.5235 81.2383 37.997C58.7623 31.7778 22.0317 25.9705 18.7441 43.1884C15.1569 61.9763 23.3294 72.9561 27.8643 76.0976L43.04 84.2421C34.4104 88.948 28.2515 93.5814 25.8125 97.6826C14.9287 115.984 33.8941 153.951 44.7373 170.646C33.0631 197.096 36.3262 219.01 39.417 226.661C24.9765 233.805 -3.06845 250.13 0.274414 258.278C4.45462 268.463 16.8441 284.424 44.7373 281.687C72.6304 278.951 95.3562 271.123 97.7881 253.87C118.439 247.112 172.849 247.551 210.802 248.955L207.993 263.523C213.592 263.067 227.784 262.429 239.763 263.523C254.735 264.891 264.616 243.914 267.732 226.661C270.225 212.859 246.444 196.285 234.242 189.724C232.961 163.16 228.299 135.21 228.299 123.524C228.299 103.277 208.728 67.509 197.049 59.2246C195.833 58.1985 194.431 57.2885 192.859 56.4902Z" fill="url(#paint0_linear_1_4)"/>
<path fill-rule="evenodd" clip-rule="evenodd" d="M212.174 249.006C211.719 248.989 211.261 248.972 210.801 248.955L207.993 263.523C213.592 263.067 227.784 262.428 239.763 263.523C254.735 264.891 264.616 243.914 267.732 226.661C270.225 212.859 246.444 196.285 234.242 189.723C235.736 220.696 232.63 249.784 212.174 249.006Z" fill="#FFD579"/>
<path d="M145.114 120.543L145.455 120.714C153.708 124.84 163.565 124.071 171.078 118.716C179.871 112.449 191.698 112.553 200.379 118.974L205.139 122.494C211.074 126.883 214.839 133.608 215.479 140.962C216.139 148.545 213.409 156.032 208.023 161.411L202.987 166.441C198.831 170.592 193.831 173.802 188.326 175.853L181.491 178.4C170.473 182.505 158.483 183.241 147.046 180.514L143.033 179.558L135.932 177.454C129.693 175.606 123.802 172.744 118.493 168.982L114.918 166.449L112.628 164.376C107.474 159.711 104.538 153.08 104.547 146.129C104.557 139.163 107.523 132.53 112.707 127.878L116.602 124.383C124.416 117.372 135.722 115.849 145.114 120.543Z" fill="white" fill-opacity="0.9"/>
<path d="M203.969 273.761C212.644 273.761 222.041 253.179 225.656 242.888C214.945 220.093 190.141 184.506 176.612 224.519C163.082 264.532 168.852 274.019 173.428 273.761H203.969Z" fill="#FFD579"/>
<path d="M125.923 273.762C117.983 273.762 109.381 253.18 106.072 242.889C115.876 220.094 138.58 184.507 150.964 224.52C163.348 264.533 158.067 274.02 153.878 273.762H125.923Z" fill="#FFD579"/>
<path d="M126.858 78.1856C123.588 78.3513 121.072 81.1364 121.238 84.4063L122.045 100.338C122.045 100.343 122.05 100.347 122.055 100.347C122.06 100.346 122.065 100.351 122.065 100.356C122.067 100.634 122.073 100.914 122.087 101.194C122.706 113.399 134.864 122.704 149.243 121.975C153.618 121.754 157.695 120.628 161.233 118.826C163.357 117.744 165.894 117.668 168.082 118.614C172.02 120.316 176.541 121.177 181.306 120.936C195.684 120.207 206.84 109.722 206.222 97.516C206.198 97.0455 206.155 96.5792 206.097 96.1177C206.095 96.1022 206.107 96.0884 206.123 96.0876C206.137 96.0868 206.149 96.0742 206.148 96.0595L205.342 80.1453C205.176 76.8754 202.391 74.3589 199.121 74.5246L126.858 78.1856Z" fill="#653E3E"/>
<ellipse cx="3.64819" cy="4.10421" rx="3.64819" ry="4.10421" transform="matrix(-1 0 0 1 194.54 136.217)" fill="#7F4343"/>
<ellipse cx="3.64819" cy="4.10421" rx="3.64819" ry="4.10421" transform="matrix(-1 0 0 1 137.537 136.217)" fill="#7F4343"/>
<path d="M158.287 150.506H171.207C172.886 150.506 174.248 151.867 174.248 153.546V155.666C174.248 158.294 173.178 160.808 171.285 162.63L171.029 162.876C167.253 166.51 161.223 166.317 157.687 162.449C156.117 160.731 155.247 158.488 155.247 156.161V153.546C155.247 151.867 156.608 150.506 158.287 150.506Z" fill="#FF6741"/>
<path d="M124.115 86.5107L108.078 96.3152" stroke="#653E3E" stroke-width="7.14436" stroke-linecap="round"/>
<path d="M106.785 247.714C101.085 233.602 90.399 201.382 93.2567 185.391" stroke="#F2B839" stroke-width="4.74452" stroke-linecap="round"/>
<path d="M155.87 240.57C154.013 232.697 149.1 215.022 144.3 207.309" stroke="#F2B839" stroke-width="4.74452" stroke-linecap="round"/>
<path d="M173.224 239.124C175.162 232.126 180.769 215.965 187.685 207.309" stroke="#F2B839" stroke-width="4.74452" stroke-linecap="round"/>
<rect width="5.62429" height="5.62429" rx="1.82409" transform="matrix(-0.999763 0.0217837 0.0217837 0.999763 196.408 81.2637)" fill="#FFF7F7"/>
<rect width="5.62429" height="5.62429" rx="1.82409" transform="matrix(-0.999763 0.0217837 0.0217837 0.999763 191.483 86.0371)" fill="#FFF7F7"/>
<rect width="73.7847" height="81.1083" rx="36.8924" transform="matrix(-0.923716 -0.383078 -0.384959 0.922934 392.206 106.264)" fill="#FF7855"/>
<path d="M385.569 161.679C397.512 149.188 397.04 129.41 384.515 117.504L376.1 109.505C374.185 107.684 371.153 107.757 369.327 109.666L345.862 134.208C336.762 143.726 337.122 158.796 346.665 167.868C356.209 176.941 371.322 176.58 380.422 167.062L385.569 161.679Z" fill="#FF7855"/>
<path d="M235.075 193.688L261.607 180.607C266.161 178.361 271.534 181.469 271.86 186.536L273.755 216.071C273.992 219.759 271.367 223.015 267.713 223.567L247.961 226.547C244.796 227.025 241.702 225.332 240.398 222.41L231.722 202.975C230.162 199.482 231.643 195.38 235.075 193.688Z" fill="#DD4537"/>
<path d="M384.524 175.134C384.524 140.575 356.508 112.56 321.949 112.56C287.39 112.56 259.374 140.575 259.374 175.134V219.659C259.374 244.906 279.841 265.372 305.088 265.372H338.811C364.057 265.372 384.524 244.905 384.524 219.659V175.134Z" fill="#FF7855"/>
<ellipse cx="19.6678" cy="27.7472" rx="19.6678" ry="27.7472" transform="matrix(-0.964921 0.262542 0.26395 0.964536 393.742 181.045)" fill="#FF7855"/>
<path d="M361.508 275.589L375.905 246.877C377.32 244.28 375.064 241.211 372.162 241.785L339.568 248.242C331.676 249.806 327.724 258.725 331.87 265.621L338.329 276.367C340.429 279.861 344.208 281.998 348.284 281.998H351.125C355.52 281.998 359.538 279.518 361.508 275.589Z" fill="#FF7855"/>
<path d="M282.669 275.589L268.272 246.877C266.858 244.28 269.114 241.211 272.015 241.785L304.609 248.242C312.502 249.806 316.453 258.725 312.308 265.621L305.848 276.367C303.748 279.861 299.97 281.998 295.893 281.998H293.052C288.657 281.998 284.639 279.518 282.669 275.589Z" fill="#FF7855"/>
<path d="M327.626 148.833L327.222 149.018C320.152 152.254 311.915 151.627 305.415 147.359C297.786 142.35 287.893 142.421 280.337 147.54L275.751 150.647C271.015 153.855 267.956 159.008 267.408 164.703C266.832 170.689 269.094 176.599 273.52 180.671L278.426 185.185C281.738 188.232 285.646 190.561 289.903 192.024L295.198 193.844C305.466 197.373 316.505 198.019 327.114 195.71L329.349 195.223L332.426 194.39C339.76 192.404 346.739 189.287 353.112 185.151L353.424 184.948L355.714 183.049C359.9 179.578 362.323 174.423 362.323 168.985C362.323 163.537 359.892 158.373 355.692 154.902L352.272 152.075C345.357 146.359 335.783 145.1 327.626 148.833Z" fill="white" fill-opacity="0.9"/>
<ellipse cx="5.05845" cy="5.04393" rx="5.05845" ry="5.04393" transform="matrix(-1 0 0 1 348.74 164.119)" fill="#0C0C0C"/>
<ellipse cx="5.05845" cy="5.04393" rx="5.05845" ry="5.04393" transform="matrix(-1 0 0 1 289.162 159.076)" fill="#0C0C0C"/>
<path d="M323.729 174.861L323.831 175.266C323.946 175.725 323.877 176.212 323.639 176.621V176.621C323.246 177.299 322.462 177.649 321.695 177.489L310.852 175.224C309.698 174.983 308.522 174.861 307.343 174.861H297.67C297.028 174.861 296.418 174.579 296.002 174.089V174.089C295.224 173.173 295.332 171.8 296.243 171.015L296.657 170.658" stroke="#FF7855" stroke-width="2.6229" stroke-linecap="round"/>
<path d="M378.346 238.486C354.495 248.287 314.767 255.833 268.309 242.577C273.275 249.331 280.053 254.669 287.926 257.876C311.173 261.816 338.333 261.878 365.206 252.854C370.548 249.069 375.041 244.166 378.346 238.486ZM384.524 213.233C360.446 224.851 314.071 235.735 259.486 217.327C259.622 220.853 260.158 224.275 261.049 227.552C292.505 238.112 339.907 244.359 384.005 222.428C384.346 220.177 384.524 217.873 384.524 215.527V213.233ZM384.524 189.309C383.172 188.794 381.639 188.706 380.109 189.187C366.946 193.321 349.356 200.226 339.194 208.319C336.793 210.232 334.544 212.266 332.24 214.126C349.413 212.698 367.229 208.359 384.524 199.666V189.309ZM259.447 184.938V204.503C266.229 206.851 273.795 209.01 281.942 210.73C281.022 209.557 280.164 208.326 279.369 207.06C274.346 199.056 267.645 190.15 261.269 185.404C260.675 184.962 260.061 184.686 259.45 184.552C259.449 184.68 259.447 184.809 259.447 184.938Z" fill="white" fill-opacity="0.9"/>
<rect width="48.145" height="70.6219" rx="11.241" transform="matrix(-0.985563 0.169308 0.170256 0.9854 244.395 162.436)" fill="#0C9CE9"/>
<rect width="35.6119" height="53.2918" rx="11.8031" transform="matrix(-0.985563 0.169308 0.170256 0.9854 239.639 170.655)" fill="white"/>
<defs>
<linearGradient id="paint0_linear_1_4" x1="133.957" y1="0" x2="133.957" y2="281.998" gradientUnits="userSpaceOnUse">
<stop stop-color="#FF8282"/>
<stop offset="0.418269" stop-color="#FFD579"/>
</linearGradient>
</defs>
</svg>
