<svg width="45" height="45" viewBox="0 0 45 45" fill="none" xmlns="http://www.w3.org/2000/svg">
<path d="M16.8218 0C7.53135 0 0 8.39272 0 18.7457C0 21.5788 0.565054 24.2694 1.57757 26.6811C0.899942 29.7432 0.312974 33.0137 0.0487606 34.5353C-0.250218 36.2574 1.09306 37.7661 2.63527 37.4602C4.0333 37.1827 7.0722 36.5584 9.8944 35.8325C12.0088 36.8985 14.3552 37.4914 16.8218 37.4914C26.1121 37.4914 33.6435 29.0986 33.6435 18.7457C33.6435 8.39272 26.1121 0 16.8218 0ZM16.7363 39.9898C19.7378 43.0929 23.7573 44.9902 28.1744 44.9902C30.6405 44.9902 32.9863 44.3976 35.1003 43.3321C37.4414 43.9427 40.0039 44.552 41.635 44.9319C43.6365 45.3981 45.3847 43.396 44.9262 41.1843C44.5617 39.4262 43.9871 36.6971 43.4194 34.1777C44.4314 31.7665 44.9962 29.0766 44.9962 26.2445C44.9962 18.0389 40.2652 11.0649 33.6772 8.52464C34.4628 10.1169 35.0707 11.8335 35.4706 13.6412C39.1781 16.312 41.6318 20.9589 41.6318 26.2445C41.6318 28.7224 41.0938 31.0549 40.1423 33.1099L39.8496 33.7423L40.0071 34.4316C40.518 36.6698 41.0534 39.1805 41.4459 41.0566C39.7097 40.6474 37.3692 40.0813 35.3021 39.5329L34.7089 39.3757L34.163 39.6784C32.3612 40.6779 30.3292 41.241 28.1744 41.241C25.7981 41.241 23.5655 40.5544 21.6276 39.35C20.1341 39.7689 18.5703 39.9913 16.96 39.9913C16.8853 39.9913 16.8108 39.9908 16.7363 39.9898Z" fill="#D9D9D9"/>
</svg>
