<svg width="409" height="282" viewBox="0 0 409 282" fill="none" xmlns="http://www.w3.org/2000/svg">
<path d="M4.12937 85.2185C3.82535 72.9363 31.7694 71.6898 45.7795 72.6019L55.584 103.687C48.465 118.964 33.5885 145.459 31.0347 129.225C27.8426 108.932 4.50939 100.571 4.12937 85.2185Z" fill="#FFD579"/>
<path d="M192.914 56.4902C156.794 30.2073 83.5416 -15.2852 68.125 5.1103C54.6778 22.9005 68.8965 33.5235 81.293 37.997C58.817 31.7778 22.0864 25.9705 18.7988 43.1884C15.2116 61.9763 23.384 72.9561 27.9189 76.0976L43.0947 84.2421C34.4651 88.948 28.3062 93.5814 25.8672 97.6826C14.9834 115.984 33.9488 153.951 44.792 170.646C33.1178 197.096 36.3809 219.01 39.4717 226.661C25.0312 233.805 -3.01376 250.13 0.329102 258.278C4.50931 268.463 16.8988 284.424 44.792 281.687C72.6851 278.951 95.4109 271.123 97.8428 253.87C118.494 247.112 172.904 247.551 210.856 248.955L208.048 263.523C213.647 263.067 227.839 262.429 239.817 263.523C254.79 264.891 264.671 243.914 267.787 226.661C270.28 212.859 246.499 196.285 234.297 189.724C233.016 163.16 228.354 135.21 228.354 123.524C228.354 103.277 208.783 67.509 197.104 59.2246C195.888 58.1985 194.486 57.2885 192.914 56.4902Z" fill="url(#paint0_linear_1_4)"/>
<path fill-rule="evenodd" clip-rule="evenodd" d="M212.228 249.007C211.774 248.989 211.316 248.972 210.856 248.955L208.048 263.523C213.647 263.067 227.839 262.429 239.818 263.523C254.79 264.891 264.671 243.914 267.787 226.662C270.28 212.859 246.499 196.285 234.297 189.724C235.791 220.696 232.685 249.784 212.228 249.007Z" fill="#FFD579"/>
<path d="M145.168 120.543L145.51 120.714C153.763 124.84 163.619 124.071 171.133 118.716C179.925 112.449 191.752 112.553 200.434 118.974L205.193 122.494C211.128 126.883 214.894 133.608 215.533 140.962C216.193 148.545 213.464 156.032 208.078 161.411L203.041 166.441C198.885 170.592 193.885 173.802 188.381 175.853L181.545 178.4C170.527 182.505 158.538 183.241 147.1 180.514L143.087 179.558L135.986 177.454C129.748 175.606 123.856 172.744 118.548 168.982L114.973 166.449L112.683 164.376C107.528 159.711 104.592 153.08 104.602 146.129C104.611 139.163 107.577 132.53 112.762 127.878L116.656 124.383C124.471 117.372 135.777 115.849 145.168 120.543Z" fill="white" fill-opacity="0.9"/>
<path d="M204.024 273.761C212.699 273.761 222.096 253.179 225.711 242.888C215 220.093 190.196 184.506 176.667 224.519C163.138 264.532 168.908 274.019 173.484 273.761H204.024Z" fill="#FFD579"/>
<path d="M125.978 273.762C118.037 273.762 109.435 253.179 106.127 242.888C115.931 220.093 138.635 184.506 151.019 224.519C163.403 264.533 158.122 274.02 153.933 273.762H125.978Z" fill="#FFD579"/>
<path d="M126.912 78.1856C123.642 78.3513 121.126 81.1364 121.292 84.4063L122.099 100.338C122.099 100.343 122.103 100.347 122.109 100.347C122.114 100.346 122.119 100.351 122.119 100.356C122.121 100.634 122.127 100.914 122.141 101.194C122.76 113.399 134.918 122.704 149.297 121.975C153.672 121.754 157.749 120.628 161.287 118.826C163.411 117.744 165.948 117.668 168.136 118.614C172.074 120.316 176.595 121.177 181.359 120.936C195.738 120.207 206.894 109.722 206.276 97.516C206.252 97.0455 206.209 96.5792 206.151 96.1177C206.149 96.1022 206.161 96.0884 206.177 96.0876C206.191 96.0868 206.203 96.0742 206.202 96.0595L205.396 80.1453C205.23 76.8754 202.445 74.3589 199.175 74.5246L126.912 78.1856Z" fill="#653E3E"/>
<ellipse cx="3.64819" cy="4.10421" rx="3.64819" ry="4.10421" transform="matrix(-1 0 0 1 194.596 136.217)" fill="#7F4343"/>
<ellipse cx="3.64819" cy="4.10421" rx="3.64819" ry="4.10421" transform="matrix(-1 0 0 1 137.592 136.217)" fill="#7F4343"/>
<path d="M158.342 150.505H171.263C172.942 150.505 174.303 151.866 174.303 153.546V155.665C174.303 158.293 173.233 160.807 171.34 162.63L171.084 162.875C167.308 166.51 161.279 166.317 157.743 162.448C156.172 160.73 155.302 158.487 155.302 156.16V153.546C155.302 151.866 156.663 150.505 158.342 150.505Z" fill="#FF6741"/>
<path d="M124.17 86.5107L108.133 96.3152" stroke="#653E3E" stroke-width="7.14436" stroke-linecap="round"/>
<path d="M106.84 247.714C101.14 233.603 90.4534 201.382 93.3112 185.391" stroke="#F2B839" stroke-width="4.74452" stroke-linecap="round"/>
<path d="M155.924 240.57C154.067 232.697 149.154 215.022 144.355 207.309" stroke="#F2B839" stroke-width="4.74452" stroke-linecap="round"/>
<path d="M173.279 239.124C175.217 232.126 180.824 215.965 187.74 207.309" stroke="#F2B839" stroke-width="4.74452" stroke-linecap="round"/>
<rect width="5.62429" height="5.62429" rx="1.82409" transform="matrix(-0.999763 0.0217837 0.0217837 0.999763 196.463 81.2632)" fill="#FFF7F7"/>
<rect width="5.62429" height="5.62429" rx="1.82409" transform="matrix(-0.999763 0.0217837 0.0217837 0.999763 191.537 86.0366)" fill="#FFF7F7"/>
<rect width="73.7847" height="81.1083" rx="36.8924" transform="matrix(-0.923716 -0.383078 -0.384959 0.922934 392.26 106.265)" fill="#FF7855"/>
<path d="M385.622 161.681C397.565 149.19 397.093 129.412 384.568 117.506L376.153 109.507C374.238 107.686 371.206 107.758 369.38 109.668L345.915 134.21C336.815 143.728 337.175 158.798 346.718 167.87C356.262 176.943 371.375 176.582 380.475 167.064L385.622 161.681Z" fill="#FF7855"/>
<path d="M235.129 193.69L261.661 180.608C266.216 178.363 271.589 181.47 271.914 186.538L273.81 216.073C274.047 219.761 271.422 223.017 267.768 223.568L248.016 226.549C244.851 227.026 241.757 225.334 240.452 222.411L231.777 202.977C230.217 199.483 231.698 195.381 235.129 193.69Z" fill="#DD4537"/>
<path d="M384.578 175.136C384.578 140.577 356.562 112.562 322.003 112.562C287.444 112.562 259.428 140.577 259.428 175.136V219.661C259.428 244.907 279.895 265.374 305.142 265.374H338.865C364.112 265.374 384.578 244.907 384.578 219.661V175.136Z" fill="#FF7855"/>
<ellipse cx="19.6678" cy="27.7472" rx="19.6678" ry="27.7472" transform="matrix(-0.964921 0.262542 0.26395 0.964536 393.797 181.046)" fill="#FF7855"/>
<path d="M361.563 275.59L375.96 246.879C377.374 244.281 375.118 241.212 372.217 241.787L339.622 248.244C331.73 249.807 327.779 258.727 331.924 265.622L338.383 276.368C340.484 279.862 344.262 281.999 348.339 281.999H351.179C355.574 281.999 359.593 279.519 361.563 275.59Z" fill="#FF7855"/>
<path d="M282.722 275.59L268.325 246.879C266.911 244.281 269.167 241.212 272.068 241.787L304.663 248.244C312.555 249.807 316.506 258.727 312.361 265.622L305.902 276.368C303.801 279.862 300.023 281.999 295.946 281.999H293.106C288.711 281.999 284.692 279.519 282.722 275.59Z" fill="#FF7855"/>
<path d="M327.68 148.835L327.276 149.02C320.206 152.256 311.969 151.629 305.469 147.361C297.84 142.352 287.947 142.423 280.391 147.541L275.805 150.649C271.069 153.857 268.01 159.01 267.462 164.705C266.886 170.691 269.148 176.601 273.574 180.673L278.48 185.187C281.792 188.234 285.7 190.563 289.957 192.026L295.252 193.846C305.52 197.375 316.559 198.021 327.168 195.711L329.403 195.225L332.48 194.392C339.814 192.406 346.793 189.289 353.166 185.153L353.478 184.95L355.769 183.051C359.955 179.58 362.377 174.424 362.377 168.987C362.377 163.539 359.946 158.375 355.747 154.904L352.326 152.077C345.411 146.361 335.837 145.102 327.68 148.835Z" fill="white" fill-opacity="0.9"/>
<ellipse cx="5.05845" cy="5.04393" rx="5.05845" ry="5.04393" transform="matrix(-1 0 0 1 348.793 164.12)" fill="#0C0C0C"/>
<ellipse cx="5.05845" cy="5.04393" rx="5.05845" ry="5.04393" transform="matrix(-1 0 0 1 289.215 159.077)" fill="#0C0C0C"/>
<path d="M323.783 174.863L323.885 175.267C324 175.727 323.931 176.213 323.693 176.623V176.623C323.3 177.301 322.516 177.65 321.748 177.49L310.906 175.225C309.752 174.984 308.576 174.863 307.397 174.863H297.724C297.082 174.863 296.472 174.581 296.056 174.091V174.091C295.278 173.174 295.386 171.801 296.296 171.017L296.711 170.66" stroke="#FF7855" stroke-width="2.6229" stroke-linecap="round"/>
<path d="M378.4 238.488C354.549 248.289 314.821 255.835 268.363 242.579C273.33 249.333 280.107 254.67 287.98 257.877C311.227 261.817 338.387 261.88 365.26 252.855C370.602 249.07 375.095 244.167 378.4 238.488ZM384.578 213.235C360.5 224.852 314.125 235.736 259.54 217.329C259.677 220.854 260.212 224.276 261.104 227.553C292.559 238.114 339.961 244.36 384.06 222.429C384.4 220.179 384.578 217.874 384.578 215.529V213.235ZM384.578 189.31C383.226 188.795 381.693 188.708 380.163 189.188C367 193.322 349.41 200.227 339.248 208.321C336.847 210.233 334.599 212.267 332.294 214.127C349.467 212.699 367.283 208.361 384.578 199.667V189.31ZM259.501 184.939V204.504C266.283 206.853 273.849 209.012 281.996 210.732C281.076 209.559 280.218 208.328 279.423 207.061C274.4 199.057 267.699 190.152 261.323 185.406C260.729 184.964 260.115 184.688 259.504 184.553C259.503 184.682 259.501 184.81 259.501 184.939Z" fill="white" fill-opacity="0.9"/>
<rect width="48.145" height="70.6219" rx="11.241" transform="matrix(-0.985563 0.169308 0.170256 0.9854 244.449 162.437)" fill="#0C9CE9"/>
<rect width="35.6119" height="53.2918" rx="11.8031" transform="matrix(-0.985563 0.169308 0.170256 0.9854 239.693 170.656)" fill="white"/>
<defs>
<linearGradient id="paint0_linear_1_4" x1="134.012" y1="0" x2="134.012" y2="281.998" gradientUnits="userSpaceOnUse">
<stop stop-color="#FF8282"/>
<stop offset="0.418269" stop-color="#FFD579"/>
</linearGradient>
</defs>
</svg>
