<svg width="140" height="159" viewBox="0 0 140 159" fill="none" xmlns="http://www.w3.org/2000/svg">
<rect width="57.2484" height="63.0583" rx="28.6242" transform="matrix(-0.923326 -0.384018 -0.384018 0.923326 127.449 21.9844)" fill="#FF896B"/>
<path d="M122.302 65.0854C131.564 55.3703 131.197 39.9862 121.481 30.724L114.958 24.5049C113.473 23.0889 111.121 23.1451 109.705 24.6303L91.5045 43.7209C84.4481 51.1224 84.7279 62.843 92.1294 69.8994C99.531 76.9558 111.251 76.6761 118.308 69.2745L122.302 65.0854Z" fill="#FF896B"/>
<path d="M5.5715 89.9889L26.1552 79.8111C29.6881 78.0642 33.8609 80.4748 34.1127 84.4079L35.5847 107.409C35.7677 110.268 33.7335 112.792 30.9008 113.221L15.5847 115.539C13.1276 115.911 10.7249 114.595 9.71428 112.325L2.97451 97.1836C1.76974 94.477 2.91579 91.302 5.5715 89.9889Z" fill="#FD7A4A"/>
<path d="M121.49 75.4107C121.49 48.6082 99.7625 26.8804 72.9599 26.8804C46.1573 26.8804 24.4296 48.6082 24.4296 75.4107V110.283C24.4296 129.863 40.3025 145.736 59.8829 145.736H86.037C105.617 145.736 121.49 129.863 121.49 110.283V75.4107Z" fill="#FF896B"/>
<ellipse cx="15.2565" cy="21.5771" rx="15.2565" ry="21.5771" transform="matrix(-0.964729 0.263245 0.263245 0.964729 128.641 80.1479)" fill="#FF896B"/>
<path d="M103.639 153.688L114.808 131.352C115.905 129.33 114.149 126.945 111.893 127.394L86.6003 132.418C80.4868 133.633 77.4243 140.54 80.6287 145.886L85.6667 154.291C87.2943 157.006 90.2278 158.668 93.3936 158.668H95.5818C98.994 158.668 102.113 156.74 103.639 153.688Z" fill="#FF896B"/>
<path d="M42.4993 153.688L31.331 131.352C30.2337 129.33 31.9899 126.945 34.2459 127.394L59.5384 132.418C65.6519 133.633 68.7144 140.54 65.5099 145.886L60.472 154.291C58.8444 157.006 55.9109 158.668 52.7451 158.668H50.5569C47.1447 158.668 44.0253 156.74 42.4993 153.688Z" fill="#FF896B"/>
<path d="M77.3643 55.0939L77.0541 55.2363C71.5707 57.7529 65.1773 57.2658 60.1384 53.9475C54.2247 50.0531 46.5463 50.1084 40.6893 54.0876L37.1455 56.4952C33.4633 58.9969 31.0866 63.0086 30.6614 67.4398C30.2146 72.0952 31.9709 76.6916 35.4081 79.863L39.197 83.3589C41.7723 85.735 44.8123 87.5513 48.125 88.6933L52.2066 90.1002C60.1741 92.8467 68.7436 93.3488 76.9774 91.5516L78.7006 91.1755L81.0723 90.5315C86.7696 88.9845 92.1902 86.5568 97.1379 83.3361L97.3717 83.184L99.1396 81.7138C102.392 79.009 104.273 74.9978 104.273 70.7675C104.273 66.5295 102.385 62.5118 99.1225 59.8071L96.4722 57.6102C91.1155 53.1697 83.688 52.1916 77.3643 55.0939Z" fill="white" fill-opacity="0.9"/>
<circle cx="3.92311" cy="3.92311" r="3.92311" transform="matrix(-1 0 0 1 93.7402 66.9839)" fill="#7F4343"/>
<circle cx="3.92311" cy="3.92311" r="3.92311" transform="matrix(-1 0 0 1 47.5332 63.0601)" fill="#7F4343"/>
<path d="M74.3387 75.3391L74.4178 75.6554C74.5068 76.0117 74.4538 76.3886 74.2698 76.7064V76.7064C73.964 77.2345 73.354 77.5067 72.7568 77.3816L64.3523 75.6212C63.4567 75.4336 62.544 75.3391 61.629 75.3391H54.1322C53.6315 75.3391 53.1563 75.1187 52.8329 74.7365V74.7365C52.23 74.024 52.3133 72.9589 53.0197 72.3489L53.3428 72.0698" stroke="#FF896B" stroke-width="2.03421" stroke-linecap="round"/>
<path d="M116.738 124.811C98.2377 132.444 67.3937 138.328 31.3213 127.995C35.1707 133.251 40.4311 137.407 46.5469 139.904C64.5969 142.976 85.6913 143.025 106.56 135.984C110.701 133.039 114.182 129.226 116.738 124.811ZM121.49 105.186C102.815 114.221 66.8474 122.686 24.5127 108.366C24.6111 111.106 25.0209 113.766 25.707 116.313C50.1051 124.533 86.8863 129.4 121.102 112.329C121.357 110.613 121.49 108.858 121.49 107.071V105.186ZM121.49 86.5771C120.44 86.1768 119.249 86.1091 118.061 86.4834C107.843 89.7022 94.1883 95.0785 86.3115 101.38C84.459 102.862 82.7235 104.436 80.9453 105.877C94.2625 104.766 108.078 101.393 121.49 94.6328V86.5771ZM24.4863 83.0371V98.3936C29.7438 100.219 35.6089 101.898 41.9238 103.235C41.2214 102.334 40.5656 101.391 39.958 100.419C36.0606 94.1851 30.8542 87.2397 25.9004 83.541C25.4396 83.197 24.9625 82.9816 24.4883 82.877C24.4881 82.9301 24.4863 82.9839 24.4863 83.0371Z" fill="white" fill-opacity="0.9"/>
</svg>
