<svg width="181" height="206" viewBox="0 0 181 206" fill="none" xmlns="http://www.w3.org/2000/svg">
<rect x="16.9082" y="28.418" width="74.0032" height="81.5135" rx="37.0016" transform="rotate(-22.5828 16.9082 28.418)" fill="#FF896B"/>
<path d="M23.5616 84.1316C11.5887 71.5732 12.0634 51.6866 24.6219 39.7138L33.0543 31.6745C34.9743 29.8441 38.0146 29.9166 39.845 31.8366L63.3721 56.5144C72.4938 66.0821 72.1321 81.2329 62.5644 90.3545C52.9966 99.4762 37.8459 99.1145 28.7242 89.5468L23.5616 84.1316Z" fill="#FF896B"/>
<path d="M174.456 116.324L147.848 103.168C143.281 100.91 137.887 104.026 137.561 109.11L135.658 138.843C135.422 142.539 138.051 145.802 141.713 146.356L161.512 149.352C164.688 149.833 167.794 148.132 169.1 145.198L177.813 125.625C179.37 122.126 177.889 118.022 174.456 116.324Z" fill="#FD7A4A"/>
<path d="M24.6094 97.4797C24.6094 62.8329 52.6962 34.7461 87.343 34.7461C121.99 34.7461 150.077 62.8329 150.077 97.4797V142.558C150.077 167.869 129.558 188.387 104.247 188.387H70.4388C45.1279 188.387 24.6094 167.869 24.6094 142.558V97.4797Z" fill="#FF896B"/>
<ellipse cx="27.0528" cy="135.703" rx="19.7217" ry="27.8921" transform="rotate(15.2627 27.0528 135.703)" fill="#FF896B"/>
<path d="M47.6873 198.668L33.2503 169.795C31.8318 167.182 34.1021 164.099 37.0183 164.678L69.7131 171.174C77.6158 172.744 81.5746 181.672 77.4324 188.582L70.9199 199.447C68.816 202.958 65.024 205.106 60.9316 205.106H58.103C53.6921 205.106 49.6599 202.614 47.6873 198.668Z" fill="#FF896B"/>
<path d="M126.719 198.668L141.156 169.795C142.574 167.182 140.304 164.099 137.388 164.678L104.693 171.174C96.7904 172.744 92.8317 181.672 96.9739 188.582L103.486 199.447C105.59 202.958 109.382 205.106 113.475 205.106H116.303C120.714 205.106 124.746 202.614 126.719 198.668Z" fill="#FF896B"/>
<path d="M81.6518 71.2179L82.0528 71.402C89.1411 74.6552 97.4055 74.0256 103.919 69.7361C111.564 64.7019 121.489 64.7734 129.06 69.9172L133.641 73.0294C138.401 76.2632 141.474 81.449 142.023 87.1772C142.601 93.195 140.33 99.1367 135.887 103.236L130.989 107.755C127.66 110.827 123.731 113.175 119.448 114.651L114.172 116.47C103.873 120.02 92.7955 120.669 82.152 118.346L79.9244 117.859L76.8586 117.027C69.4939 115.027 62.4868 111.889 56.0911 107.726L55.7889 107.529L53.5036 105.629C49.2991 102.132 46.8672 96.9471 46.8672 91.4788C46.8672 86.0004 49.308 80.8068 53.5257 77.3105L56.9515 74.4707C63.8761 68.7306 73.4773 67.4662 81.6518 71.2179Z" fill="white" fill-opacity="0.9"/>
<circle cx="65.5557" cy="91.6592" r="5.07128" fill="#7F4343"/>
<circle cx="125.284" cy="86.5869" r="5.07128" fill="#7F4343"/>
<path d="M85.5591 97.3882L85.4569 97.7971C85.3417 98.2576 85.4103 98.7449 85.6482 99.1557V99.1557C86.0434 99.8383 86.832 100.19 87.604 100.029L98.4681 97.7529C99.6259 97.5104 100.806 97.3882 101.989 97.3882H111.679C112.327 97.3882 112.941 97.1032 113.359 96.6092V96.6092C114.138 95.6882 114.031 94.3114 113.117 93.5228L112.7 93.1621" stroke="#FF896B" stroke-width="2.62955" stroke-linecap="round"/>
<path d="M30.752 161.338C54.6665 171.206 94.5386 178.814 141.169 165.457C136.194 172.249 129.395 177.619 121.492 180.847C98.1582 184.818 70.8882 184.883 43.9102 175.781C38.5565 171.974 34.0568 167.045 30.752 161.338ZM24.6094 135.968C48.749 147.648 95.2441 158.591 149.97 140.081C149.843 143.623 149.314 147.062 148.427 150.354C116.888 160.98 69.3406 167.271 25.1113 145.203C24.7816 142.986 24.6094 140.716 24.6094 138.407V135.968ZM24.6094 111.914C25.9663 111.397 27.5063 111.309 29.042 111.793C42.2495 115.954 59.8999 122.904 70.082 131.05C72.4765 132.965 74.7191 135.001 77.0176 136.863C59.8036 135.427 41.9457 131.065 24.6094 122.326V111.914ZM150.004 107.339V127.189C143.207 129.55 135.625 131.72 127.461 133.449C128.369 132.284 129.216 131.064 130.002 129.808C135.04 121.749 141.77 112.772 148.174 107.99C148.77 107.545 149.388 107.266 150.002 107.131C150.002 107.2 150.004 107.27 150.004 107.339Z" fill="white" fill-opacity="0.9"/>
</svg>
