<svg width="28" height="29" viewBox="0 0 28 29" fill="none" xmlns="http://www.w3.org/2000/svg">
<path d="M2.2636 3.25262C1.94408 3.55883 1.91504 4.03799 2.17646 4.37564L2.2636 4.47238L7.10509 9.11214C4.7987 10.664 3.07493 12.9819 2.35866 15.7241C2.23796 16.1861 2.531 16.6545 3.01317 16.7702C3.49536 16.8858 3.98408 16.6051 4.10479 16.1429C4.74015 13.7105 6.30935 11.6704 8.401 10.3537L10.5726 12.435C9.72354 13.2647 9.2 14.4015 9.2 15.6553C9.2 18.1959 11.349 20.2553 14 20.2553C15.3085 20.2553 16.4946 19.7536 17.3605 18.9399L24.4637 25.7474C24.8151 26.0842 25.3849 26.0842 25.7364 25.7474C26.0559 25.4412 26.085 24.962 25.8235 24.6244L25.7364 24.5277L18.4002 17.4963L18.4016 17.4946L10.0625 9.5065L10.064 9.50441L8.70407 8.20432L3.5364 3.25262C3.18493 2.91579 2.61507 2.91579 2.2636 3.25262ZM14 7.025C12.7996 7.025 11.6349 7.19528 10.5333 7.51375L12.0177 8.93537C12.6607 8.81362 13.3237 8.75 14 8.75C18.7077 8.75 22.7719 11.8323 23.8965 16.1482C24.017 16.6103 24.5055 16.8913 24.9878 16.776C25.4701 16.6605 25.7634 16.1924 25.6429 15.7302C24.3193 10.6506 19.5386 7.025 14 7.025ZM14.2336 11.0607L18.7952 15.4315C18.673 13.0661 16.6966 11.1738 14.2336 11.0607Z" fill="#0C9CE9"/>
</svg>
