<svg width="29" height="29" viewBox="0 0 29 29" fill="none" xmlns="http://www.w3.org/2000/svg">
<path d="M2.41669 7.25033C2.41669 6.58299 2.95768 6.04199 3.62502 6.04199H25.375C26.0424 6.04199 26.5834 6.58299 26.5834 7.25033C26.5834 7.91766 26.0424 8.45866 25.375 8.45866H3.62502C2.95768 8.45866 2.41669 7.91766 2.41669 7.25033ZM2.41669 21.7503C2.41669 21.083 2.95768 20.542 3.62502 20.542H25.375C26.0424 20.542 26.5834 21.083 26.5834 21.7503C26.5834 22.4177 26.0424 22.9587 25.375 22.9587H3.62502C2.95768 22.9587 2.41669 22.4177 2.41669 21.7503ZM3.62502 13.292C2.95768 13.292 2.41669 13.833 2.41669 14.5003C2.41669 15.1677 2.95768 15.7087 3.62502 15.7087H25.375C26.0424 15.7087 26.5834 15.1677 26.5834 14.5003C26.5834 13.833 26.0424 13.292 25.375 13.292H3.62502Z" fill="#595959"/>
<path d="M2.41669 7.25033C2.41669 6.58299 2.95768 6.04199 3.62502 6.04199H25.375C26.0424 6.04199 26.5834 6.58299 26.5834 7.25033C26.5834 7.91766 26.0424 8.45866 25.375 8.45866H3.62502C2.95768 8.45866 2.41669 7.91766 2.41669 7.25033ZM2.41669 21.7503C2.41669 21.083 2.95768 20.542 3.62502 20.542H25.375C26.0424 20.542 26.5834 21.083 26.5834 21.7503C26.5834 22.4177 26.0424 22.9587 25.375 22.9587H3.62502C2.95768 22.9587 2.41669 22.4177 2.41669 21.7503ZM3.62502 13.292C2.95768 13.292 2.41669 13.833 2.41669 14.5003C2.41669 15.1677 2.95768 15.7087 3.62502 15.7087H25.375C26.0424 15.7087 26.5834 15.1677 26.5834 14.5003C26.5834 13.833 26.0424 13.292 25.375 13.292H3.62502Z" fill="black" fill-opacity="0.2"/>
<path d="M2.41669 7.25033C2.41669 6.58299 2.95768 6.04199 3.62502 6.04199H25.375C26.0424 6.04199 26.5834 6.58299 26.5834 7.25033C26.5834 7.91766 26.0424 8.45866 25.375 8.45866H3.62502C2.95768 8.45866 2.41669 7.91766 2.41669 7.25033ZM2.41669 21.7503C2.41669 21.083 2.95768 20.542 3.62502 20.542H25.375C26.0424 20.542 26.5834 21.083 26.5834 21.7503C26.5834 22.4177 26.0424 22.9587 25.375 22.9587H3.62502C2.95768 22.9587 2.41669 22.4177 2.41669 21.7503ZM3.62502 13.292C2.95768 13.292 2.41669 13.833 2.41669 14.5003C2.41669 15.1677 2.95768 15.7087 3.62502 15.7087H25.375C26.0424 15.7087 26.5834 15.1677 26.5834 14.5003C26.5834 13.833 26.0424 13.292 25.375 13.292H3.62502Z" fill="black" fill-opacity="0.2"/>
<path d="M2.41669 7.25033C2.41669 6.58299 2.95768 6.04199 3.62502 6.04199H25.375C26.0424 6.04199 26.5834 6.58299 26.5834 7.25033C26.5834 7.91766 26.0424 8.45866 25.375 8.45866H3.62502C2.95768 8.45866 2.41669 7.91766 2.41669 7.25033ZM2.41669 21.7503C2.41669 21.083 2.95768 20.542 3.62502 20.542H25.375C26.0424 20.542 26.5834 21.083 26.5834 21.7503C26.5834 22.4177 26.0424 22.9587 25.375 22.9587H3.62502C2.95768 22.9587 2.41669 22.4177 2.41669 21.7503ZM3.62502 13.292C2.95768 13.292 2.41669 13.833 2.41669 14.5003C2.41669 15.1677 2.95768 15.7087 3.62502 15.7087H25.375C26.0424 15.7087 26.5834 15.1677 26.5834 14.5003C26.5834 13.833 26.0424 13.292 25.375 13.292H3.62502Z" fill="black" fill-opacity="0.2"/>
<path d="M2.41669 7.25033C2.41669 6.58299 2.95768 6.04199 3.62502 6.04199H25.375C26.0424 6.04199 26.5834 6.58299 26.5834 7.25033C26.5834 7.91766 26.0424 8.45866 25.375 8.45866H3.62502C2.95768 8.45866 2.41669 7.91766 2.41669 7.25033ZM2.41669 21.7503C2.41669 21.083 2.95768 20.542 3.62502 20.542H25.375C26.0424 20.542 26.5834 21.083 26.5834 21.7503C26.5834 22.4177 26.0424 22.9587 25.375 22.9587H3.62502C2.95768 22.9587 2.41669 22.4177 2.41669 21.7503ZM3.62502 13.292C2.95768 13.292 2.41669 13.833 2.41669 14.5003C2.41669 15.1677 2.95768 15.7087 3.62502 15.7087H25.375C26.0424 15.7087 26.5834 15.1677 26.5834 14.5003C26.5834 13.833 26.0424 13.292 25.375 13.292H3.62502Z" fill="black" fill-opacity="0.2"/>
</svg>
