<svg width="119" height="118" viewBox="0 0 119 118" fill="none" xmlns="http://www.w3.org/2000/svg">
<path d="M47.0591 0.859117C47.7156 1.08244 48.3569 1.34807 48.9788 1.6543L56.4627 5.33878C58.4935 6.33874 60.8738 6.33874 62.9047 5.33878L70.3886 1.6543C78.3374 -2.25953 87.9549 1.01197 91.8683 8.96131L92.2971 9.90835L92.6635 10.8811L95.3501 18.7781C96.0793 20.9213 97.7625 22.6044 99.9053 23.3335L107.802 26.0199C116.191 28.8734 120.678 37.987 117.825 46.3755C117.601 47.032 117.336 47.6733 117.029 48.2952L113.345 55.7791C112.345 57.8099 112.345 60.1902 113.345 62.2211L117.029 69.705C120.943 77.6538 117.672 87.2713 109.722 91.1847C109.1 91.491 108.459 91.757 107.802 91.9799L99.9053 94.6665C97.7625 95.3957 96.0793 97.0789 95.3501 99.2217L92.6635 107.119C89.8101 115.507 80.6967 119.994 72.308 117.141C71.6516 116.917 71.0105 116.652 70.3886 116.346L62.9047 112.661C60.8738 111.661 58.4935 111.661 56.4627 112.661L48.9788 116.346C41.0295 120.26 31.4125 116.988 27.4986 109.039C27.1924 108.417 26.9267 107.776 26.7035 107.119L24.0171 99.2217C23.288 97.0789 21.6049 95.3957 19.4617 94.6665L11.5647 91.9799C3.17613 89.1265 -1.31083 80.0131 1.54271 71.6244C1.76604 70.968 2.03166 70.3269 2.33789 69.705L6.02238 62.2211C7.02233 60.1902 7.02233 57.8099 6.02238 55.7791L2.33789 48.2952C-1.57593 40.3459 1.69556 30.7289 9.64491 26.815C10.267 26.5088 10.9083 26.2431 11.5647 26.0199L19.4617 23.3335C21.6049 22.6044 23.288 20.9213 24.0171 18.7781L26.7035 10.8811C29.557 2.49253 38.6706 -1.99443 47.0591 0.859117ZM79.926 41.321L48.3096 72.937L36.7918 59.1162C35.2448 57.2592 32.4858 57.0084 30.6293 58.5555C28.7729 60.1027 28.522 62.8616 30.0691 64.718L44.6542 82.2201C46.3013 84.1967 49.2903 84.3326 51.1094 82.513L86.1136 47.5088C87.8224 45.8001 87.8224 43.0297 86.1136 41.321C84.4048 39.6122 81.6348 39.6122 79.926 41.321Z" fill="#FF4242"/>
</svg>
