<svg width="174" height="174" viewBox="0 0 174 174" fill="none" xmlns="http://www.w3.org/2000/svg">
<circle cx="87" cy="87" r="87" transform="matrix(-1 0 0 1 174 0)" fill="#FFEAEA"/>
<mask id="mask0_1091_2544" style="mask-type:alpha" maskUnits="userSpaceOnUse" x="0" y="0" width="174" height="174">
<circle cx="87" cy="87" r="87" transform="matrix(-1 0 0 1 174 0)" fill="#80E6FF"/>
</mask>
<g mask="url(#mask0_1091_2544)">
<rect x="23.1152" y="35.1494" width="73.0295" height="80.4409" rx="36.5147" transform="rotate(-22.5828 23.1152 35.1494)" fill="#FF896B"/>
<path d="M29.6865 90.1274C17.8712 77.7342 18.3396 58.1093 30.7328 46.2939L39.0543 38.3604C40.949 36.5541 43.9493 36.6257 45.7557 38.5204L68.9732 62.8735C77.9748 72.3153 77.618 87.2668 68.1761 96.2684C58.7342 105.27 43.7828 104.913 34.7812 95.4712L29.6865 90.1274Z" fill="#FF896B"/>
<path d="M178.59 121.897L152.332 108.913C147.825 106.685 142.502 109.76 142.181 114.777L140.303 144.119C140.07 147.766 142.665 150.986 146.278 151.533L165.816 154.49C168.951 154.964 172.016 153.286 173.305 150.39L181.903 131.075C183.44 127.622 181.978 123.572 178.59 121.897Z" fill="#FD7A4A"/>
<path d="M30.7168 103.3C30.7168 69.1089 58.4341 41.3916 92.625 41.3916C126.816 41.3916 154.533 69.1089 154.533 103.3V147.785C154.533 172.763 134.285 193.011 109.307 193.011H75.9432C50.9654 193.011 30.7168 172.763 30.7168 147.785V103.3Z" fill="#FF896B"/>
<ellipse cx="33.1256" cy="141.02" rx="19.4622" ry="27.5251" transform="rotate(15.2627 33.1256 141.02)" fill="#FF896B"/>
<path d="M53.4933 203.155L39.2463 174.661C37.8465 172.083 40.0869 169.04 42.9648 169.612L75.2294 176.022C83.0281 177.571 86.9348 186.382 82.847 193.202L76.4203 203.924C74.3441 207.388 70.6019 209.508 66.5634 209.508H63.772C59.4192 209.508 55.44 207.048 53.4933 203.155Z" fill="#FF896B"/>
<path d="M131.483 203.155L145.73 174.661C147.13 172.083 144.89 169.04 142.012 169.612L109.747 176.022C101.948 177.571 98.0418 186.382 102.13 193.202L108.556 203.924C110.632 207.388 114.375 209.508 118.413 209.508H121.205C125.557 209.508 129.537 207.048 131.483 203.155Z" fill="#FF896B"/>
<path d="M87.0085 77.3829L87.4043 77.5646C94.3993 80.775 102.555 80.1536 108.983 75.9206C116.527 70.9526 126.322 71.0232 133.793 76.0993L138.314 79.1706C143.011 82.3618 146.043 87.4794 146.586 93.1322C147.156 99.0709 144.915 104.934 140.53 108.98L135.697 113.439C132.412 116.471 128.534 118.788 124.308 120.244L119.101 122.039C108.937 125.543 98.0056 126.183 87.5021 123.891L85.3039 123.411L82.2785 122.589C75.0106 120.616 68.0958 117.519 61.7842 113.41L61.486 113.216L59.2307 111.341C55.0815 107.891 52.6816 102.774 52.6816 97.3772C52.6816 91.9709 55.0903 86.8456 59.2525 83.3954L62.6333 80.5929C69.4667 74.9283 78.9416 73.6806 87.0085 77.3829Z" fill="white" fill-opacity="0.9"/>
<circle cx="71.1276" cy="97.5563" r="5.00456" fill="#7F4343"/>
<circle cx="130.065" cy="92.549" r="5.00456" fill="#7F4343"/>
<path d="M90.8698 103.211L90.7689 103.614C90.6553 104.068 90.723 104.549 90.9578 104.955V104.955C91.3477 105.628 92.126 105.976 92.8878 105.816L103.609 103.57C104.752 103.331 105.916 103.211 107.083 103.211H116.646C117.285 103.211 117.891 102.929 118.304 102.442V102.442C119.073 101.533 118.967 100.174 118.066 99.396L117.653 99.04" stroke="#FF896B" stroke-width="2.59496" stroke-linecap="round"/>
<path d="M36.7861 166.317C60.3873 176.053 99.73 183.558 145.74 170.378C140.827 177.084 134.112 182.384 126.307 185.568C103.289 189.483 76.3907 189.545 49.7803 180.571C44.4936 176.815 40.05 171.951 36.7861 166.317ZM30.7188 141.282C54.5426 152.808 100.425 163.605 154.429 145.338C154.303 148.832 153.781 152.225 152.905 155.474C121.783 165.959 74.8626 172.169 31.2158 150.395C30.8895 148.203 30.7188 145.96 30.7188 143.678V141.282ZM30.7188 117.53C32.0561 117.022 33.573 116.937 35.0859 117.413C48.1197 121.519 65.5387 128.378 75.5869 136.416C77.9554 138.311 80.1735 140.324 82.4473 142.166C65.4568 140.75 47.8305 136.445 30.7188 127.82V117.53ZM154.463 113.019V132.615C147.751 134.946 140.264 137.09 132.201 138.797C133.101 137.644 133.94 136.435 134.718 135.19C139.69 127.238 146.332 118.378 152.651 113.66C153.242 113.219 153.853 112.944 154.461 112.812C154.461 112.88 154.463 112.95 154.463 113.019Z" fill="white" fill-opacity="0.9"/>
</g>
</svg>
