<svg width="59" height="36" viewBox="0 0 59 36" fill="none" xmlns="http://www.w3.org/2000/svg">
<path d="M25.4516 18.1353C25.4516 18.9337 25.2673 19.7168 24.8988 20.4845C24.5303 21.2522 24.0697 21.9738 23.517 22.6494C22.9642 23.325 22.3654 23.9545 21.7206 24.538C21.0757 25.0907 20.4922 25.5667 19.9702 25.9659C19.4175 26.3958 18.7726 26.8564 18.0356 27.3477C17.2986 27.8391 16.577 28.2997 15.8707 28.7296C15.1951 29.1595 14.5963 29.5587 14.0743 29.9272C13.5522 30.265 13.2298 30.4953 13.107 30.6181L11.7712 31.6776C11.6176 31.8004 11.4334 31.8772 11.2184 31.9079C11.0342 31.9386 10.8806 31.9539 10.7578 31.9539C10.5429 31.9539 10.374 31.8465 10.2511 31.6315C10.1283 31.3858 10.0669 31.1402 10.0669 30.8945C10.0669 30.7103 10.2358 30.3878 10.5736 29.9272C10.9421 29.4359 11.3566 29.0213 11.8172 28.6835C12.2779 28.3457 12.846 28.008 13.5215 27.6702C14.1971 27.3324 15.1183 26.795 16.2852 26.058C16.8687 25.6895 17.575 25.2135 18.4041 24.6301C19.2332 24.0159 20.0163 23.3711 20.7533 22.6955C21.4903 21.9892 22.1198 21.2676 22.6418 20.5306C23.1638 19.7629 23.4249 19.0259 23.4249 18.3196C23.4249 18.0432 23.0871 17.7668 22.4115 17.4905C21.7666 17.1834 20.8454 17.0298 19.6478 17.0298C18.4195 17.0298 17.1297 17.2141 15.7786 17.5826C14.4274 17.9511 13.1684 18.3503 12.0015 18.7802C10.8653 19.2101 9.88263 19.6093 9.05351 19.9778C8.2244 20.3463 7.71772 20.5306 7.53347 20.5306C7.62559 21.2368 7.73307 22.112 7.8559 23.1561C8.00944 24.1695 8.16298 25.1521 8.31652 26.1041C8.47006 27.2096 8.63896 28.3611 8.8232 29.5587H9.00745C9.06887 29.8658 9.1917 30.3111 9.37595 30.8945C9.5602 31.478 9.65232 31.9386 9.65232 32.2764C9.65232 32.7677 9.46807 33.0134 9.09958 33.0134C8.91533 33.0134 8.70037 32.8445 8.45471 32.5067C8.23975 32.1689 8.00944 31.7697 7.76378 31.3091C7.54882 30.8484 7.34922 30.4032 7.16497 29.9733C7.01143 29.5127 6.90395 29.1902 6.84254 29.006C6.56617 27.9926 6.28979 26.8257 6.01342 25.5053C5.76776 24.1848 5.53745 22.8644 5.32249 21.5439C5.13824 20.1928 4.9847 18.9337 4.86187 17.7668C4.76975 16.5692 4.72369 15.5866 4.72369 14.8189C4.72369 14.6039 4.76975 14.4197 4.86187 14.2661C4.9847 14.1126 5.04612 13.959 5.04612 13.8055C5.04612 13.652 5.00006 13.5445 4.90793 13.4831C4.84652 13.391 4.81581 13.2528 4.81581 13.0685C4.81581 12.9764 4.83116 12.8843 4.86187 12.7921C4.92329 12.6693 5.06147 12.6079 5.27643 12.6079C5.49139 12.6693 5.69099 12.7 5.87524 12.7C6.09019 12.7 6.27444 12.7461 6.42798 12.8382C6.58152 12.8996 6.70435 13.0225 6.79648 13.2067C6.8886 13.391 6.93466 13.6827 6.93466 14.0819V14.3583C6.93466 14.4197 6.91931 14.4964 6.8886 14.5886C6.8886 14.65 6.8886 14.7114 6.8886 14.7728C6.8886 15.2948 6.90395 15.7094 6.93466 16.0165C6.96537 16.3236 7.01143 16.4771 7.07285 16.4771C7.16497 16.4771 7.48741 16.2621 8.04015 15.8322C8.6236 15.3716 9.31453 14.8035 10.1129 14.1279C10.9113 13.4524 11.7712 12.7 12.6924 11.8709C13.6444 11.0418 14.5502 10.2434 15.4101 9.47568C15.7479 9.1686 16.2085 8.73869 16.7919 8.18594C17.3754 7.60249 17.9435 6.98833 18.4962 6.34346C19.0797 5.6986 19.571 5.09979 19.9702 4.54705C20.4001 3.9636 20.6151 3.51833 20.6151 3.21125C20.6151 2.90417 20.523 2.75063 20.3387 2.75063C20.093 2.75063 19.571 2.85811 18.7726 3.07306C17.9742 3.28802 17.0683 3.57974 16.0549 3.94824C15.0416 4.28603 13.9975 4.68523 12.9227 5.14585C11.8479 5.60647 10.896 6.08245 10.0669 6.57377C9.20705 7.15723 8.34723 7.80209 7.48741 8.50838C6.62758 9.21466 5.84453 9.89024 5.13824 10.5351C4.46267 11.1493 3.89457 11.6867 3.43395 12.1473C3.00404 12.5772 2.77373 12.8229 2.74302 12.8843C2.6816 12.9457 2.6509 13.0071 2.6509 13.0685C2.6509 13.1299 2.66625 13.2221 2.69696 13.3449C2.75837 13.437 2.78908 13.5138 2.78908 13.5752C2.78908 13.6673 2.72767 13.7441 2.60483 13.8055C2.482 13.8669 2.34382 13.8976 2.19028 13.8976C1.94461 13.8976 1.63753 13.8516 1.26904 13.7594C0.90054 13.6366 0.716292 13.3295 0.716292 12.8382C0.716292 12.4083 0.961956 11.8709 1.45328 11.226C1.94461 10.5812 2.57413 9.89024 3.34183 9.15325C4.14023 8.41625 5.01541 7.69462 5.96736 6.98833C6.91931 6.25134 7.8559 5.57576 8.77714 4.96161C9.69838 4.37815 10.6964 3.82541 11.7712 3.30337C12.8767 2.75063 13.9514 2.27465 14.9955 1.87545C16.0703 1.47625 17.0837 1.16917 18.0356 0.954211C18.9876 0.708546 19.7706 0.585714 20.3848 0.585714C20.6304 0.585714 20.9068 0.616422 21.2139 0.677839C21.521 0.739255 21.8127 0.831378 22.0891 0.954211C22.3654 1.07704 22.5957 1.24594 22.78 1.46089C22.9642 1.64514 23.0564 1.87545 23.0564 2.15182C23.0564 2.98094 22.8107 3.84076 22.3194 4.7313C21.828 5.59112 21.1832 6.4663 20.3848 7.35683C19.5864 8.24736 18.6805 9.15325 17.6671 10.0745C16.6845 10.965 15.6864 11.8402 14.6731 12.7C13.6904 13.5291 12.7385 14.3429 11.8172 15.1413C10.896 15.909 10.1283 16.6153 9.51413 17.2602C9.85192 17.1373 10.4047 16.9377 11.1724 16.6614C11.9401 16.3543 12.7692 16.0625 13.6597 15.7862C14.581 15.4791 15.5022 15.2181 16.4234 15.0031C17.3447 14.7882 18.1584 14.6807 18.8647 14.6807C19.0797 14.6807 19.5403 14.696 20.2466 14.7267C20.9529 14.7575 21.6899 14.8803 22.4576 15.0952C23.2253 15.3102 23.9162 15.6633 24.5303 16.1547C25.1445 16.6153 25.4516 17.2755 25.4516 18.1353ZM37.4475 21.6821C37.4475 21.9892 37.1865 22.2963 36.6644 22.6034C36.1731 22.8797 35.605 23.1254 34.9602 23.3403C34.3153 23.5553 33.7011 23.7395 33.1177 23.8931C32.5342 24.0159 32.1657 24.0773 32.0122 24.0773C31.4594 24.0773 31.0756 24.0466 30.8606 23.9852C30.6764 23.9238 30.5075 23.7242 30.354 23.3864C30.2618 23.2636 30.1697 23.1254 30.0776 22.9718C29.9855 22.7876 29.9394 22.6494 29.9394 22.5573C29.9394 22.4345 29.9547 22.3577 29.9855 22.327C30.0469 22.2963 30.1697 22.2809 30.354 22.2809C30.6917 22.2809 31.1831 22.2041 31.8279 22.0506C32.5035 21.8971 33.1637 21.7282 33.8086 21.5439C34.4842 21.3597 35.0983 21.1908 35.6511 21.0372C36.2038 20.8837 36.5416 20.8069 36.6644 20.8069C36.818 20.8069 36.9869 20.9298 37.1711 21.1754C37.3554 21.3904 37.4475 21.5593 37.4475 21.6821ZM58.1229 18.1814C58.1229 19.2255 57.9386 20.2235 57.5701 21.1754C57.2016 22.1274 56.6796 23.0486 56.004 23.9391C55.3284 24.8297 54.53 25.7049 53.6088 26.5647C52.7182 27.3938 51.7356 28.2076 50.6608 29.006C49.5246 29.8658 48.2042 30.6949 46.6995 31.4933C45.1948 32.2917 43.6747 32.998 42.1393 33.6122C40.6347 34.257 39.2067 34.7637 37.8556 35.1322C36.5044 35.5007 35.4143 35.685 34.5852 35.685C34.0324 35.685 33.6332 35.6082 33.3876 35.4547C33.1112 35.3318 32.973 35.0247 32.973 34.5334C32.973 34.1956 33.0958 33.7964 33.3415 33.3358C33.5872 32.8752 33.8328 32.6449 34.0785 32.6449C34.3242 32.6449 34.5084 32.7216 34.6312 32.8752C34.7234 33.0287 34.7694 33.1976 34.7694 33.3819C34.7694 33.474 34.7694 33.5508 34.7694 33.6122C34.7387 33.6736 34.7234 33.7196 34.7234 33.7504V33.8425C35.8903 33.7196 37.4564 33.3512 39.4217 32.737C41.3563 32.1535 43.6747 31.1248 46.377 29.6508C47.544 29.006 48.6955 28.2536 49.8317 27.3938C50.9679 26.5033 51.9813 25.5667 52.8718 24.584C53.793 23.5707 54.53 22.5266 55.0828 21.4518C55.6355 20.3463 55.9119 19.2715 55.9119 18.2275C55.9119 17.4905 55.528 16.7381 54.7603 15.9704C54.0233 15.172 53.0714 14.435 51.9045 13.7594C50.7683 13.0532 49.5246 12.4544 48.1735 11.963C46.8223 11.441 45.5633 11.0879 44.3964 10.9036C44.4271 11.0571 44.4732 11.441 44.5346 12.0552C44.596 12.6386 44.6881 13.3295 44.8109 14.1279C44.9338 14.9264 45.072 15.7862 45.2255 16.7074C45.4097 17.5979 45.6093 18.4271 45.8243 19.1948C46.07 20.0546 46.2235 20.6995 46.2849 21.1294C46.377 21.5286 46.4385 21.8664 46.4692 22.1427C46.4999 22.4498 46.5459 22.849 46.6074 23.3403C46.6995 23.801 46.7609 24.2923 46.7916 24.8143C46.853 25.3057 46.8991 25.7816 46.9298 26.2422C46.9912 26.6722 47.0219 27.0099 47.0219 27.2556C47.0219 27.532 46.9605 27.8237 46.8377 28.1308C46.7455 28.4379 46.6227 28.5914 46.4692 28.5914C46.1007 28.5914 45.8397 28.4686 45.6861 28.2229C45.5633 27.9465 45.4405 27.5013 45.3176 26.8871C45.2255 26.2422 45.1027 25.4131 44.9491 24.3998C44.7956 23.3864 44.5039 22.1427 44.0739 20.6687C43.4598 18.6113 43.0299 16.6767 42.7842 14.8649C42.5385 13.0225 42.385 11.5638 42.3236 10.489C42.3236 10.489 42.2468 10.489 42.0933 10.489C41.9704 10.4583 41.7862 10.443 41.5405 10.443C41.3256 10.443 41.0646 10.443 40.7575 10.443C40.4811 10.4123 40.2201 10.3969 39.9744 10.3969C39.4524 10.3969 38.9764 10.5044 38.5465 10.7194C38.1166 10.9036 37.7635 11.1186 37.4871 11.3642C37.18 11.6099 36.9343 11.8402 36.7501 12.0552C36.5351 12.2394 36.3969 12.3315 36.3355 12.3315C36.1206 12.3315 35.8288 12.2855 35.4604 12.1933C35.0611 12.0705 34.8615 11.8556 34.8615 11.5485C34.8615 11.1493 35.0611 10.7501 35.4604 10.3509C35.8288 9.92095 36.2895 9.55245 36.8422 9.24537C37.395 8.90758 37.9938 8.64657 38.6386 8.46232C39.2835 8.24736 39.8823 8.13988 40.435 8.13988C41.3563 8.13988 42.4311 8.26271 43.6594 8.50838C44.8877 8.75404 46.1467 9.09183 47.4365 9.52174C48.7569 9.95165 50.0467 10.4737 51.3057 11.0879C52.5954 11.702 53.747 12.3776 54.7603 13.1146C55.7737 13.8516 56.5875 14.65 57.2016 15.5098C57.8158 16.3696 58.1229 17.2602 58.1229 18.1814Z" fill="#FF4242"/>
</svg>
