<svg width="58" height="36" viewBox="0 0 58 36" fill="none" xmlns="http://www.w3.org/2000/svg">
<path d="M24.768 18.1353C24.768 18.9337 24.5837 19.7168 24.2152 20.4845C23.8468 21.2522 23.3861 21.9738 22.8334 22.6494C22.2806 23.325 21.6818 23.9545 21.037 24.538C20.3921 25.0907 19.8087 25.5667 19.2866 25.9659C18.7339 26.3958 18.089 26.8564 17.352 27.3477C16.615 27.8391 15.8934 28.2997 15.1871 28.7296C14.5115 29.1595 13.9127 29.5587 13.3907 29.9272C12.8686 30.265 12.5462 30.4953 12.4234 30.6181L11.0876 31.6776C10.934 31.8004 10.7498 31.8772 10.5348 31.9079C10.3506 31.9386 10.197 31.9539 10.0742 31.9539C9.85926 31.9539 9.69036 31.8465 9.56753 31.6315C9.4447 31.3858 9.38328 31.1402 9.38328 30.8945C9.38328 30.7103 9.55218 30.3878 9.88997 29.9272C10.2585 29.4359 10.673 29.0213 11.1336 28.6835C11.5943 28.3457 12.1624 28.008 12.8379 27.6702C13.5135 27.3324 14.4348 26.795 15.6017 26.058C16.1851 25.6895 16.8914 25.2135 17.7205 24.6301C18.5496 24.0159 19.3327 23.3711 20.0697 22.6955C20.8067 21.9892 21.4362 21.2676 21.9582 20.5306C22.4802 19.7629 22.7413 19.0259 22.7413 18.3196C22.7413 18.0432 22.4035 17.7668 21.7279 17.4905C21.083 17.1834 20.1618 17.0298 18.9642 17.0298C17.7359 17.0298 16.4461 17.2141 15.095 17.5826C13.7438 17.9511 12.4848 18.3503 11.3179 18.7802C10.1817 19.2101 9.19904 19.6093 8.36992 19.9778C7.5408 20.3463 7.03412 20.5306 6.84987 20.5306C6.942 21.2368 7.04948 22.112 7.17231 23.1561C7.32585 24.1695 7.47939 25.1521 7.63293 26.1041C7.78647 27.2096 7.95536 28.3611 8.13961 29.5587H8.32386C8.38527 29.8658 8.50811 30.3111 8.69235 30.8945C8.8766 31.478 8.96873 31.9386 8.96873 32.2764C8.96873 32.7677 8.78448 33.0134 8.41598 33.0134C8.23173 33.0134 8.01678 32.8445 7.77111 32.5067C7.55616 32.1689 7.32585 31.7697 7.08018 31.3091C6.86523 30.8484 6.66563 30.4032 6.48138 29.9733C6.32784 29.5127 6.22036 29.1902 6.15894 29.006C5.88257 27.9926 5.6062 26.8257 5.32983 25.5053C5.08416 24.1848 4.85385 22.8644 4.6389 21.5439C4.45465 20.1928 4.30111 18.9337 4.17828 17.7668C4.08615 16.5692 4.04009 15.5866 4.04009 14.8189C4.04009 14.6039 4.08615 14.4197 4.17828 14.2661C4.30111 14.1126 4.36253 13.959 4.36253 13.8055C4.36253 13.652 4.31646 13.5445 4.22434 13.4831C4.16292 13.391 4.13222 13.2528 4.13222 13.0685C4.13222 12.9764 4.14757 12.8843 4.17828 12.7921C4.23969 12.6693 4.37788 12.6079 4.59284 12.6079C4.80779 12.6693 5.00739 12.7 5.19164 12.7C5.4066 12.7 5.59085 12.7461 5.74439 12.8382C5.89793 12.8996 6.02076 13.0225 6.11288 13.2067C6.20501 13.391 6.25107 13.6827 6.25107 14.0819V14.3583C6.25107 14.4197 6.23571 14.4964 6.20501 14.5886C6.20501 14.65 6.20501 14.7114 6.20501 14.7728C6.20501 15.2948 6.22036 15.7094 6.25107 16.0165C6.28178 16.3236 6.32784 16.4771 6.38925 16.4771C6.48138 16.4771 6.80381 16.2621 7.35656 15.8322C7.94001 15.3716 8.63094 14.8035 9.42935 14.1279C10.2278 13.4524 11.0876 12.7 12.0088 11.8709C12.9608 11.0418 13.8667 10.2434 14.7265 9.47568C15.0643 9.1686 15.5249 8.73869 16.1083 8.18594C16.6918 7.60249 17.2599 6.98833 17.8126 6.34346C18.3961 5.6986 18.8874 5.09979 19.2866 4.54705C19.7165 3.9636 19.9315 3.51833 19.9315 3.21125C19.9315 2.90417 19.8394 2.75063 19.6551 2.75063C19.4094 2.75063 18.8874 2.85811 18.089 3.07306C17.2906 3.28802 16.3847 3.57974 15.3713 3.94824C14.358 4.28603 13.3139 4.68523 12.2391 5.14585C11.1643 5.60647 10.2124 6.08245 9.38328 6.57377C8.52346 7.15723 7.66364 7.80209 6.80381 8.50838C5.94399 9.21466 5.16093 9.89024 4.45465 10.5351C3.77907 11.1493 3.21098 11.6867 2.75036 12.1473C2.32044 12.5772 2.09013 12.8229 2.05943 12.8843C1.99801 12.9457 1.9673 13.0071 1.9673 13.0685C1.9673 13.1299 1.98266 13.2221 2.01336 13.3449C2.07478 13.437 2.10549 13.5138 2.10549 13.5752C2.10549 13.6673 2.04407 13.7441 1.92124 13.8055C1.79841 13.8669 1.66022 13.8976 1.50668 13.8976C1.26102 13.8976 0.953938 13.8516 0.585442 13.7594C0.216946 13.6366 0.0326979 13.3295 0.0326979 12.8382C0.0326979 12.4083 0.278362 11.8709 0.76969 11.226C1.26102 10.5812 1.89053 9.89024 2.65823 9.15325C3.45664 8.41625 4.33182 7.69462 5.28377 6.98833C6.23571 6.25134 7.17231 5.57576 8.09355 4.96161C9.01479 4.37815 10.0128 3.82541 11.0876 3.30337C12.1931 2.75063 13.2678 2.27465 14.3119 1.87545C15.3867 1.47625 16.4001 1.16917 17.352 0.954211C18.304 0.708546 19.087 0.585714 19.7012 0.585714C19.9468 0.585714 20.2232 0.616422 20.5303 0.677839C20.8374 0.739255 21.1291 0.831378 21.4055 0.954211C21.6818 1.07704 21.9121 1.24594 22.0964 1.46089C22.2806 1.64514 22.3728 1.87545 22.3728 2.15182C22.3728 2.98094 22.1271 3.84076 21.6358 4.7313C21.1444 5.59112 20.4996 6.4663 19.7012 7.35683C18.9028 8.24736 17.9969 9.15325 16.9835 10.0745C16.0009 10.965 15.0028 11.8402 13.9895 12.7C13.0068 13.5291 12.0549 14.3429 11.1336 15.1413C10.2124 15.909 9.4447 16.6153 8.83054 17.2602C9.16833 17.1373 9.72107 16.9377 10.4888 16.6614C11.2565 16.3543 12.0856 16.0625 12.9761 15.7862C13.8974 15.4791 14.8186 15.2181 15.7398 15.0031C16.6611 14.7882 17.4748 14.6807 18.1811 14.6807C18.3961 14.6807 18.8567 14.696 19.563 14.7267C20.2693 14.7575 21.0063 14.8803 21.774 15.0952C22.5417 15.3102 23.2326 15.6633 23.8468 16.1547C24.4609 16.6153 24.768 17.2755 24.768 18.1353ZM36.7639 21.6821C36.7639 21.9892 36.5029 22.2963 35.9809 22.6034C35.4895 22.8797 34.9214 23.1254 34.2766 23.3403C33.6317 23.5553 33.0175 23.7395 32.4341 23.8931C31.8506 24.0159 31.4821 24.0773 31.3286 24.0773C30.7758 24.0773 30.392 24.0466 30.177 23.9852C29.9928 23.9238 29.8239 23.7242 29.6704 23.3864C29.5782 23.2636 29.4861 23.1254 29.394 22.9718C29.3019 22.7876 29.2558 22.6494 29.2558 22.5573C29.2558 22.4345 29.2712 22.3577 29.3019 22.327C29.3633 22.2963 29.4861 22.2809 29.6704 22.2809C30.0081 22.2809 30.4995 22.2041 31.1443 22.0506C31.8199 21.8971 32.4801 21.7282 33.125 21.5439C33.8006 21.3597 34.4147 21.1908 34.9675 21.0372C35.5202 20.8837 35.858 20.8069 35.9809 20.8069C36.1344 20.8069 36.3033 20.9298 36.4875 21.1754C36.6718 21.3904 36.7639 21.5593 36.7639 21.6821ZM57.4393 18.1814C57.4393 19.2255 57.255 20.2235 56.8865 21.1754C56.518 22.1274 55.996 23.0486 55.3204 23.9391C54.6448 24.8297 53.8464 25.7049 52.9252 26.5647C52.0347 27.3938 51.052 28.2076 49.9772 29.006C48.841 29.8658 47.5206 30.6949 46.0159 31.4933C44.5112 32.2917 42.9911 32.998 41.4557 33.6122C39.9511 34.257 38.5231 34.7637 37.172 35.1322C35.8208 35.5007 34.7307 35.685 33.9016 35.685C33.3488 35.685 32.9496 35.6082 32.704 35.4547C32.4276 35.3318 32.2894 35.0247 32.2894 34.5334C32.2894 34.1956 32.4122 33.7964 32.6579 33.3358C32.9036 32.8752 33.1492 32.6449 33.3949 32.6449C33.6406 32.6449 33.8248 32.7216 33.9476 32.8752C34.0398 33.0287 34.0858 33.1976 34.0858 33.3819C34.0858 33.474 34.0858 33.5508 34.0858 33.6122C34.0551 33.6736 34.0398 33.7196 34.0398 33.7504V33.8425C35.2067 33.7196 36.7728 33.3512 38.7381 32.737C40.6727 32.1535 42.9911 31.1248 45.6935 29.6508C46.8604 29.006 48.0119 28.2536 49.1481 27.3938C50.2843 26.5033 51.2977 25.5667 52.1882 24.584C53.1094 23.5707 53.8464 22.5266 54.3992 21.4518C54.9519 20.3463 55.2283 19.2715 55.2283 18.2275C55.2283 17.4905 54.8444 16.7381 54.0767 15.9704C53.3397 15.172 52.3878 14.435 51.2209 13.7594C50.0847 13.0532 48.841 12.4544 47.4899 11.963C46.1387 11.441 44.8797 11.0879 43.7128 10.9036C43.7435 11.0571 43.7896 11.441 43.851 12.0552C43.9124 12.6386 44.0045 13.3295 44.1273 14.1279C44.2502 14.9264 44.3884 15.7862 44.5419 16.7074C44.7262 17.5979 44.9258 18.4271 45.1407 19.1948C45.3864 20.0546 45.5399 20.6995 45.6013 21.1294C45.6935 21.5286 45.7549 21.8664 45.7856 22.1427C45.8163 22.4498 45.8623 22.849 45.9238 23.3403C46.0159 23.801 46.0773 24.2923 46.108 24.8143C46.1694 25.3057 46.2155 25.7816 46.2462 26.2422C46.3076 26.6722 46.3383 27.0099 46.3383 27.2556C46.3383 27.532 46.2769 27.8237 46.1541 28.1308C46.0619 28.4379 45.9391 28.5914 45.7856 28.5914C45.4171 28.5914 45.1561 28.4686 45.0025 28.2229C44.8797 27.9465 44.7569 27.5013 44.634 26.8871C44.5419 26.2422 44.4191 25.4131 44.2655 24.3998C44.112 23.3864 43.8203 22.1427 43.3904 20.6687C42.7762 18.6113 42.3463 16.6767 42.1006 14.8649C41.855 13.0225 41.7014 11.5638 41.64 10.489C41.64 10.489 41.5632 10.489 41.4097 10.489C41.2869 10.4583 41.1026 10.443 40.8569 10.443C40.642 10.443 40.381 10.443 40.0739 10.443C39.7975 10.4123 39.5365 10.3969 39.2908 10.3969C38.7688 10.3969 38.2928 10.5044 37.8629 10.7194C37.433 10.9036 37.0799 11.1186 36.8035 11.3642C36.4964 11.6099 36.2507 11.8402 36.0665 12.0552C35.8515 12.2394 35.7134 12.3315 35.6519 12.3315C35.437 12.3315 35.1453 12.2855 34.7768 12.1933C34.3776 12.0705 34.178 11.8556 34.178 11.5485C34.178 11.1493 34.3776 10.7501 34.7768 10.3509C35.1453 9.92095 35.6059 9.55245 36.1586 9.24537C36.7114 8.90758 37.3102 8.64657 37.955 8.46232C38.5999 8.24736 39.1987 8.13988 39.7515 8.13988C40.6727 8.13988 41.7475 8.26271 42.9758 8.50838C44.2041 8.75404 45.4631 9.09183 46.7529 9.52174C48.0733 9.95165 49.3631 10.4737 50.6221 11.0879C51.9118 11.702 53.0634 12.3776 54.0767 13.1146C55.0901 13.8516 55.9039 14.65 56.518 15.5098C57.1322 16.3696 57.4393 17.2602 57.4393 18.1814Z" fill="#0C9CE9"/>
</svg>
