<svg width="186" height="195" viewBox="0 0 186 195" fill="none" xmlns="http://www.w3.org/2000/svg">
<path d="M2.8175 58.9275C2.60727 50.4345 21.9304 49.5726 31.6182 50.2032L38.3979 71.6986C33.4752 82.2624 23.1882 100.583 21.4223 89.3574C19.215 75.325 3.08028 69.5438 2.8175 58.9275Z" fill="#FFD579"/>
<path d="M133.359 39.0653C108.382 20.891 57.7306 -10.5694 47.0701 3.53405C37.7715 15.8357 47.6026 23.1818 56.1746 26.2753C40.6326 21.9748 15.234 17.9582 12.9607 29.8641C10.4801 42.8558 16.1315 50.4485 19.2673 52.621L29.7605 58.2528C23.7935 61.5068 19.5348 64.7109 17.8484 67.5467C10.3225 80.2023 23.4373 106.456 30.9353 118.001C22.8628 136.29 25.1193 151.444 27.2566 156.734C17.271 161.674 -2.12277 172.963 0.189224 178.598C3.0798 185.64 11.6474 196.677 30.9353 194.785C50.2229 192.893 65.937 187.48 67.6189 175.55C81.8988 170.876 119.523 171.179 145.767 172.15L143.825 182.224C147.697 181.908 157.511 181.467 165.794 182.224C176.147 183.169 182.98 168.664 185.135 156.734C186.858 147.19 170.414 135.73 161.976 131.192C161.091 112.824 157.866 93.496 157.866 85.4159C157.866 71.415 144.334 46.6816 136.258 40.953C135.417 40.2436 134.446 39.6173 133.359 39.0653Z" fill="url(#paint0_linear_270_3652)"/>
<path fill-rule="evenodd" clip-rule="evenodd" d="M146.716 172.186C146.401 172.174 146.085 172.162 145.767 172.15L143.825 182.224C147.697 181.909 157.511 181.467 165.794 182.224C176.147 183.17 182.979 168.664 185.134 156.734C186.858 147.19 170.414 135.729 161.976 131.192C163.009 152.609 160.862 172.723 146.716 172.186Z" fill="#FFD579"/>
<path d="M100.345 83.3543L100.581 83.4724C106.288 86.3252 113.103 85.7937 118.299 82.0907C124.379 77.7573 132.557 77.8292 138.56 82.2688L141.851 84.7029C145.955 87.738 148.559 92.3886 149.002 97.4737C149.458 102.717 147.57 107.894 143.846 111.614L140.364 115.092C137.489 117.963 134.032 120.182 130.226 121.6L125.499 123.361C117.88 126.2 109.59 126.709 101.681 124.824L98.9057 124.162L93.9954 122.708C89.6816 121.43 85.6076 119.451 81.9368 116.849L79.4649 115.098L77.8811 113.664C74.3171 110.438 72.2868 105.853 72.2934 101.046C72.3 96.2299 74.351 91.6427 77.9358 88.426L80.6288 86.0097C86.0325 81.1611 93.8507 80.1081 100.345 83.3543Z" fill="white" fill-opacity="0.9"/>
<path d="M141.043 189.303C147.041 189.303 153.539 175.07 156.039 167.954C148.632 152.192 131.481 127.583 122.125 155.252C112.77 182.921 116.76 189.481 119.924 189.303H141.043Z" fill="#FFD579"/>
<path d="M87.0743 189.304C81.5837 189.304 75.6354 175.071 73.3476 167.955C80.127 152.192 95.8267 127.584 104.39 155.253C112.954 182.922 109.301 189.482 106.405 189.304H87.0743Z" fill="#FFD579"/>
<path d="M87.7204 54.0645C85.4592 54.179 83.7191 56.1049 83.8337 58.366L84.3917 69.3811C84.3919 69.385 84.3953 69.3881 84.3992 69.3879C84.4033 69.3877 84.4067 69.3909 84.4068 69.395C84.408 69.5873 84.412 69.7808 84.4218 69.9744C84.8496 78.4145 93.2573 84.8491 103.2 84.3454C106.226 84.1921 109.046 83.4136 111.492 82.167C112.961 81.4186 114.715 81.3657 116.228 82.02C118.951 83.1973 122.077 83.7929 125.371 83.626C135.314 83.1221 143.027 75.8717 142.6 67.4317C142.584 67.1061 142.553 66.7833 142.513 66.4639C142.512 66.453 142.52 66.4433 142.531 66.4427C142.542 66.4422 142.549 66.4334 142.549 66.423L141.991 55.4196C141.877 53.1584 139.951 51.4183 137.69 51.5329L87.7204 54.0645Z" fill="#653E3E"/>
<ellipse cx="2.52269" cy="2.83802" rx="2.52269" ry="2.83802" transform="matrix(-1 0 0 1 134.523 94.1926)" fill="#7F4343"/>
<ellipse cx="2.52269" cy="2.83802" rx="2.52269" ry="2.83802" transform="matrix(-1 0 0 1 95.1058 94.1926)" fill="#7F4343"/>
<path d="M109.454 104.073H118.388C119.549 104.073 120.49 105.014 120.49 106.175V107.641C120.49 109.458 119.751 111.197 118.441 112.457L118.265 112.627C115.654 115.14 111.484 115.007 109.039 112.332C107.953 111.144 107.351 109.593 107.351 107.983V106.175C107.351 105.014 108.293 104.073 109.454 104.073Z" fill="#FF6741"/>
<path d="M85.8239 59.821L74.7346 66.6008" stroke="#653E3E" stroke-width="4.94026" stroke-linecap="round"/>
<path d="M73.8412 171.292C69.8995 161.534 62.5101 139.254 64.4862 128.196" stroke="#F2B839" stroke-width="3.28079" stroke-linecap="round"/>
<path d="M107.782 166.352C106.498 160.908 103.101 148.686 99.7823 143.352" stroke="#F2B839" stroke-width="3.28079" stroke-linecap="round"/>
<path d="M119.782 165.352C121.123 160.513 125 149.338 129.782 143.352" stroke="#F2B839" stroke-width="3.28079" stroke-linecap="round"/>
<rect width="3.88914" height="3.88914" rx="1.26134" transform="matrix(-0.999763 0.0217837 0.0217837 0.999763 135.815 56.1929)" fill="#FFF7F7"/>
<rect width="3.88914" height="3.88914" rx="1.26134" transform="matrix(-0.999763 0.0217837 0.0217837 0.999763 132.409 59.4934)" fill="#FFF7F7"/>
<defs>
<linearGradient id="paint0_linear_270_3652" x1="92.6298" y1="0.000488281" x2="92.6298" y2="195" gradientUnits="userSpaceOnUse">
<stop stop-color="#FF8282"/>
<stop offset="0.418269" stop-color="#FFD579"/>
</linearGradient>
</defs>
</svg>
