<svg width="171" height="164" viewBox="0 0 171 164" fill="none" xmlns="http://www.w3.org/2000/svg">
<rect width="59.3172" height="65.2048" rx="29.6586" transform="matrix(-0.923716 -0.383078 -0.384959 0.922934 157.726 22.7231)" fill="#FF7855"/>
<path d="M152.392 67.2724C161.993 57.2309 161.613 41.3309 151.544 31.7589L144.78 25.3284C143.24 23.8648 140.802 23.923 139.334 25.4584L120.47 45.1881C113.154 52.8394 113.444 64.9546 121.116 72.2482C128.788 79.5417 140.938 79.2517 148.254 71.6004L152.392 67.2724Z" fill="#FF7855"/>
<path d="M31.4056 93.0054L52.7352 82.4891C56.3964 80.6839 60.7163 83.1822 60.9778 87.2558L62.5017 111C62.692 113.965 60.5819 116.582 57.6441 117.026L41.765 119.422C39.221 119.806 36.7335 118.445 35.6847 116.095L28.7102 100.472C27.4564 97.663 28.6468 94.3656 31.4056 93.0054Z" fill="#DD4537"/>
<path d="M151.551 78.0899C151.551 50.307 129.029 27.7844 101.246 27.7844C73.4628 27.7844 50.9403 50.3069 50.9403 78.0898V113.884C50.9403 134.18 67.3939 150.634 87.6903 150.634H114.801C135.098 150.634 151.551 134.18 151.551 113.884V78.0899Z" fill="#FF7855"/>
<ellipse cx="15.8114" cy="22.3066" rx="15.8114" ry="22.3066" transform="matrix(-0.964921 0.262542 0.26395 0.964536 158.962 82.8413)" fill="#FF7855"/>
<path d="M133.049 158.848L144.623 135.766C145.76 133.677 143.946 131.21 141.614 131.672L115.41 136.863C109.066 138.12 105.889 145.291 109.222 150.834L114.414 159.473C116.103 162.282 119.14 164 122.418 164H124.701C128.234 164 131.465 162.006 133.049 158.848Z" fill="#FF7855"/>
<path d="M69.6681 158.848L58.0939 135.766C56.9569 133.677 58.7706 131.21 61.103 131.672L87.3064 136.863C93.6512 138.12 96.8276 145.291 93.4953 150.834L88.3024 159.473C86.6139 162.282 83.5764 164 80.299 164H78.0155C74.4824 164 71.2518 162.006 69.6681 158.848Z" fill="#FF7855"/>
<path d="M105.81 56.9462L105.485 57.0947C99.8012 59.6959 93.1791 59.1922 87.9539 55.7611C81.821 51.7339 73.8676 51.7911 67.7933 55.9061L64.1061 58.404C60.2986 60.9833 57.8397 65.1262 57.3991 69.704C56.936 74.5165 58.7546 79.268 62.3126 82.5414L66.2567 86.1699C68.9197 88.6199 72.0611 90.4919 75.4832 91.6682L79.7402 93.1314C87.9948 95.9687 96.8694 96.4874 105.398 94.6311L107.195 94.24L109.669 93.5703C115.565 91.974 121.175 89.468 126.299 86.1426L126.549 85.98L128.391 84.4529C131.756 81.6625 133.703 77.518 133.703 73.1463C133.703 68.7666 131.749 64.6154 128.373 61.8251L125.623 59.5521C120.064 54.9573 112.368 53.945 105.81 56.9462Z" fill="white" fill-opacity="0.9"/>
<ellipse cx="4.0666" cy="4.05493" rx="4.0666" ry="4.05493" transform="matrix(-1 0 0 1 122.784 69.2341)" fill="#0C0C0C"/>
<ellipse cx="4.0666" cy="4.05493" rx="4.0666" ry="4.05493" transform="matrix(-1 0 0 1 74.8874 65.1797)" fill="#0C0C0C"/>
<path d="M102.677 77.8703L102.758 78.1952C102.851 78.5647 102.796 78.9557 102.604 79.2851V79.2851C102.288 79.8302 101.658 80.1112 101.041 79.9823L92.324 78.1617C91.3963 77.968 90.4511 77.8703 89.5034 77.8703H81.7272C81.2106 77.8703 80.7202 77.6433 80.386 77.2494V77.2494C79.7606 76.5125 79.847 75.4091 80.5793 74.7784L80.9129 74.4912" stroke="#FF7855" stroke-width="2.10861" stroke-linecap="round"/>
<path d="M146.585 129.019C127.411 136.899 95.472 142.965 58.1224 132.307C62.1146 137.737 67.5625 142.028 73.892 144.607C92.5815 147.775 114.417 147.825 136.022 140.569C140.316 137.526 143.928 133.585 146.585 129.019ZM151.551 108.718C132.194 118.058 94.9121 126.807 51.0297 112.008C51.1394 114.843 51.57 117.594 52.2865 120.229C77.5743 128.719 115.683 133.74 151.135 116.109C151.409 114.3 151.551 112.447 151.551 110.562V108.718ZM151.551 89.4849C150.465 89.071 149.232 89.0001 148.002 89.3862C137.42 92.71 123.279 98.2606 115.11 104.767C113.179 106.305 111.371 107.939 109.518 109.435C123.324 108.287 137.647 104.8 151.551 97.811V89.4849ZM50.9984 85.9702V101.7C56.4508 103.588 62.5339 105.323 69.0834 106.706C68.3437 105.762 67.654 104.774 67.015 103.755C62.9771 97.3208 57.5901 90.1616 52.4642 86.3462C51.9866 85.9907 51.4927 85.7676 51.0013 85.6597C51.0007 85.7631 50.9984 85.8666 50.9984 85.9702Z" fill="white" fill-opacity="0.9"/>
<rect width="38.7048" height="56.7745" rx="9.0369" transform="matrix(-0.985563 0.169308 0.170256 0.9854 38.8845 67.8835)" fill="#0C9CE9"/>
<rect width="28.6292" height="42.8425" rx="9.48874" transform="matrix(-0.985563 0.169308 0.170256 0.9854 35.0612 74.4912)" fill="white"/>
</svg>
