<svg width="119" height="119" viewBox="0 0 119 119" fill="none" xmlns="http://www.w3.org/2000/svg">
<circle cx="59.5" cy="59.5" r="59.5" fill="#0C9CE9"/>
<path d="M48.0352 82.4141V85.4023H49.4766V86.6328H48.0352V90.0547H46.5234V82.4141H48.0352ZM45.1289 83.2109C45.1289 86.0938 43.3242 88.1094 40.125 89.0117L39.5039 87.8281C41.8887 87.1602 43.2422 85.9238 43.4883 84.4297H39.9727V83.2109H45.1289ZM48.3984 91.6953V92.8906H41.0977V89.2695H42.6094V91.6953H48.3984ZM58.9336 82.4141V90.2656H57.4453V87.6406H56.0859V86.4102H57.4453V85.4844H56.0859V84.2891H57.4453V82.4141H58.9336ZM55.8984 83.1758V84.3711H55.0195V87.6055C55.377 87.582 55.7285 87.5469 56.0625 87.5117L56.1211 88.6016C54.1289 88.9297 51.7852 88.9766 50.0977 88.9766L49.9453 87.7578L51.082 87.7461V84.3711H50.2148V83.1758H55.8984ZM59.1914 91.6953V92.8906H51.8438V89.6797H53.3438V91.6953H59.1914ZM52.5234 87.7227L53.5898 87.6875V84.3711H52.5234V87.7227ZM69.3047 82.4141V87.7812H67.8164V86.9609H65.3789V85.8242H67.8164V84.8867H65.4961C64.834 86.4922 63.3105 87.5176 60.9492 88.0273L60.4453 86.8086C62.8887 86.3223 64.0195 85.3145 64.2188 84.0312H61.043V82.8242H65.8711C65.8711 83.1465 65.8477 83.457 65.8008 83.75H67.8164V82.4141H69.3047ZM69.3047 88.168V91.0859H63.7266V91.7891H69.5391V92.9727H62.2266V89.9844H67.8047V89.3398H62.2148V88.168H69.3047ZM79.9102 82.4141V93.0781H78.4922V82.4141H79.9102ZM77.7305 82.5898V92.5859H76.3242V87.2773H74.918V86.0703H76.3242V82.5898H77.7305ZM74.0625 85.2734C74.0625 87.043 74.6133 88.8359 76.1719 89.7266L75.293 90.8281C74.3438 90.2656 73.7168 89.3105 73.3594 88.168C72.9902 89.4102 72.3457 90.4648 71.3672 91.0625L70.4648 89.9609C72.0352 89 72.6211 87.0781 72.6211 85.2734V84.6992H70.875V83.5039H75.6797V84.6992H74.0625V85.2734Z" fill="white"/>
<path d="M54.4716 25.3422C54.7331 25.4311 54.9885 25.5369 55.2362 25.6589L58.2171 27.1265C59.026 27.5248 59.9741 27.5248 60.783 27.1265L63.7638 25.6589C66.9299 24.1 70.7606 25.4031 72.3193 28.5693L72.4901 28.9465L72.6361 29.334L73.7061 32.4794C73.9966 33.3331 74.667 34.0035 75.5205 34.2939L78.6659 35.3638C82.0072 36.5004 83.7944 40.1304 82.6578 43.4716C82.5688 43.7331 82.4631 43.9885 82.3411 44.2362L80.8734 47.2171C80.4752 48.026 80.4752 48.9741 80.8734 49.783L82.3411 52.7638C83.9001 55.9299 82.597 59.7606 79.4306 61.3193C79.1829 61.4413 78.9276 61.5473 78.6659 61.6361L75.5205 62.7061C74.667 62.9966 73.9966 63.667 73.7061 64.5205L72.6361 67.6659C71.4995 71.0072 67.8696 72.7944 64.5284 71.6578C64.2669 71.5688 64.0116 71.4631 63.7638 71.3411L60.783 69.8734C59.9741 69.4752 59.026 69.4752 58.2171 69.8734L55.2362 71.3411C52.07 72.9001 48.2395 71.597 46.6806 68.4306C46.5586 68.1829 46.4528 67.9276 46.3638 67.6659L45.2939 64.5205C45.0035 63.667 44.3331 62.9966 43.4794 62.7061L40.334 61.6361C36.9928 60.4995 35.2056 56.8696 36.3422 53.5284C36.4311 53.2669 36.5369 53.0116 36.6589 52.7638L38.1265 49.783C38.5248 48.9741 38.5248 48.026 38.1265 47.2171L36.6589 44.2362C35.1 41.07 36.4031 37.2395 39.5693 35.6806C39.8171 35.5586 40.0725 35.4528 40.334 35.3638L43.4794 34.2939C44.3331 34.0035 45.0035 33.3331 45.2939 32.4794L46.3638 29.334C47.5004 25.9928 51.1304 24.2056 54.4716 25.3422ZM67.5627 41.4584L54.9697 54.0512L50.3821 48.5463C49.7659 47.8066 48.667 47.7067 47.9275 48.323C47.1881 48.9392 47.0882 50.0381 47.7044 50.7775L53.5137 57.7487C54.1698 58.536 55.3603 58.5901 56.0849 57.8654L70.0272 43.923C70.7078 43.2424 70.7078 42.1389 70.0272 41.4584C69.3466 40.7778 68.2433 40.7778 67.5627 41.4584Z" fill="white"/>
</svg>
