<svg width="119" height="119" viewBox="0 0 119 119" fill="none" xmlns="http://www.w3.org/2000/svg">
<circle cx="59.5" cy="59.5" r="59.5" fill="#0C9CE9"/>
<path d="M45.1406 83.4336C45.1289 86.7266 44.332 89.4688 40.3477 91.4609L39.5273 90.3359C41.3086 89.4512 42.3691 88.4609 42.9727 87.2773L39.8203 87.5703L39.6328 86.293L43.4297 86.0586C43.5352 85.6133 43.6113 85.1328 43.6523 84.6289H40.1953V83.4336H45.1406ZM47.9883 82.4141V86.5039H49.5V87.7344H47.9883V93.0547H46.4883V82.4141H47.9883ZM58.6406 87.3477V88.543H51.0938V83.3047H58.5586V84.5117H52.5703V87.3477H58.6406ZM59.707 90.5469V91.7773H49.9453V90.5469H59.707ZM69.3047 82.4141V87.7812H67.8164V86.9609H65.3789V85.8242H67.8164V84.8867H65.4961C64.834 86.4922 63.3105 87.5176 60.9492 88.0273L60.4453 86.8086C62.8887 86.3223 64.0195 85.3145 64.2188 84.0312H61.043V82.8242H65.8711C65.8711 83.1465 65.8477 83.457 65.8008 83.75H67.8164V82.4141H69.3047ZM69.3047 88.168V91.0859H63.7266V91.7891H69.5391V92.9727H62.2266V89.9844H67.8047V89.3398H62.2148V88.168H69.3047ZM79.9102 82.4141V93.0781H78.4922V82.4141H79.9102ZM77.7305 82.5898V92.5859H76.3242V87.2773H74.918V86.0703H76.3242V82.5898H77.7305ZM74.0625 85.2734C74.0625 87.043 74.6133 88.8359 76.1719 89.7266L75.293 90.8281C74.3438 90.2656 73.7168 89.3105 73.3594 88.168C72.9902 89.4102 72.3457 90.4648 71.3672 91.0625L70.4648 89.9609C72.0352 89 72.6211 87.0781 72.6211 85.2734V84.6992H70.875V83.5039H75.6797V84.6992H74.0625V85.2734Z" fill="white"/>
<path d="M64.3943 28.6693C64.6007 28.41 64.9849 28.3755 65.2353 28.5938L67.376 30.4619L60.635 38.8H65.0998L69.9939 32.7463L73.8341 36.0972C74.0703 36.3034 74.0977 36.6581 73.8957 36.8972L72.2891 38.8H76.8081C77.9563 37.1415 77.6943 34.8658 76.1401 33.5096L67.5412 26.0062C65.7899 24.478 63.1006 24.7193 61.6558 26.5343L51.8906 38.8H56.3292L64.3943 28.6693ZM43.2297 37.65C42.267 37.65 41.4865 38.4223 41.4865 39.375C41.4865 40.3277 42.267 41.1 43.2297 41.1H73.4459C77.6179 41.1 81 44.4467 81 48.575V63.525C81 67.6533 77.6179 71 73.4459 71H45.5541C41.3821 71 38 67.6533 38 63.525V39.375C38 36.5169 40.3414 34.2 43.2297 34.2H53.2708L50.5012 37.65H43.2297ZM67.0541 56.625C67.0541 57.5777 67.8346 58.35 68.7973 58.35H73.4459C74.4087 58.35 75.1892 57.5777 75.1892 56.625C75.1892 55.6723 74.4087 54.9 73.4459 54.9H68.7973C67.8346 54.9 67.0541 55.6723 67.0541 56.625Z" fill="white"/>
</svg>
