<svg width="119" height="119" viewBox="0 0 119 119" fill="none" xmlns="http://www.w3.org/2000/svg">
<circle cx="59.5" cy="59.5" r="59.5" fill="#0C9CE9"/>
<path d="M48.8203 82.4141V93.0781H47.4141V82.4141H48.8203ZM46.5938 82.6484V92.6094H45.1758V89.0938H43.6641V87.8867H45.1758V86.4336H43.8633C43.3652 88.1914 42.2871 89.6797 40.2891 90.8633L39.4102 89.8086C41.5723 88.5312 42.5215 86.9785 42.7266 84.8867H40.0312V83.6797H44.2148C44.2148 84.2129 44.1797 84.7285 44.1211 85.2266H45.1758V82.6484H46.5938ZM56.0859 83.2695V84.4883H53.9531C54.0234 85.5723 54.7969 86.6152 56.3906 87.0664L55.6875 88.2383C54.4922 87.8926 53.6602 87.1953 53.1914 86.293C52.7227 87.2832 51.8672 88.0566 50.625 88.4258L49.875 87.2656C51.5215 86.7793 52.3125 85.666 52.4062 84.4883H50.2617V83.2695H56.0859ZM53.9297 87.9805V89.7617C54.7559 89.7207 55.582 89.6562 56.3555 89.5508L56.4609 90.6289C54.2109 91.0508 51.8086 91.0391 50.0156 91.0508L49.8164 89.832C50.5957 89.832 51.4922 89.832 52.4297 89.8086V87.9805H53.9297ZM59.8711 86.6211V87.875H58.418V93.0781H56.918V82.4141H58.418V86.6211H59.8711ZM69.2461 82.4141V93.1016H67.7344V82.4141H69.2461ZM63.457 83.1641C65.0625 83.1641 66.2578 84.6406 66.2578 86.9609C66.2578 89.3047 65.0625 90.7695 63.457 90.7695C61.8164 90.7695 60.6211 89.3047 60.6328 86.9609C60.6211 84.6406 61.8164 83.1641 63.457 83.1641ZM63.457 84.5117C62.625 84.5117 62.0742 85.3789 62.0742 86.9609C62.0742 88.5547 62.625 89.4102 63.457 89.4102C64.2656 89.4102 64.8164 88.5547 64.8164 86.9609C64.8164 85.3789 64.2656 84.5117 63.457 84.5117ZM74.0156 85.6602C74.0156 87.2773 74.6016 88.8945 76.1133 89.7148L75.293 90.8047C74.332 90.3125 73.6934 89.4453 73.3242 88.4023C72.9492 89.5391 72.3105 90.5 71.3438 91.0625L70.4883 89.9375C72.0234 89.0469 72.5977 87.3125 72.6094 85.6602V85.4141H70.8867V84.2188H72.6094V82.7773H74.0039V84.2188H75.6914V85.4141H74.0156V85.6602ZM79.9102 82.4141V93.0781H78.4922V82.4141H79.9102ZM77.7305 82.5898V92.5859H76.3242V87.6758H75.0703V86.457H76.3242V82.5898H77.7305Z" fill="white"/>
<path d="M61.6068 26.3873C59.9668 24.5376 57.0332 24.5376 55.3934 26.3873L36.0142 48.2461C33.7039 50.852 35.5954 54.9087 39.121 54.9087H46.75V60.0768C46.75 62.2998 48.5914 64.1018 50.863 64.1018H66.1398C68.4113 64.1018 70.2528 62.2998 70.2528 60.0768V54.9087H77.879C81.4046 54.9087 83.2961 50.852 80.9858 48.2461L61.6068 26.3873ZM48.5141 67.55C47.5406 67.55 46.7514 68.3223 46.7514 69.275C46.7514 70.2277 47.5406 71 48.5141 71H68.4915C69.465 71 70.2542 70.2277 70.2542 69.275C70.2542 68.3223 69.465 67.55 68.4915 67.55H48.5141Z" fill="white"/>
</svg>
