<svg width="174" height="174" viewBox="0 0 174 174" fill="none" xmlns="http://www.w3.org/2000/svg">
<mask id="mask0_705_4579" style="mask-type:alpha" maskUnits="userSpaceOnUse" x="0" y="0" width="174" height="174">
<circle cx="87" cy="87" r="87" fill="#80E6FF"/>
</mask>
<g mask="url(#mask0_705_4579)">
<path d="M183.799 52.9505C184.02 44.0218 163.706 43.1157 153.521 43.7787L146.394 66.3765C151.569 77.4821 162.384 96.7427 164.24 84.941C166.561 70.1889 183.523 64.1112 183.799 52.9505Z" fill="#FFD579"/>
<path d="M46.5654 32.0654C72.8242 12.9587 126.071 -20.1113 137.277 -5.28516C147.053 7.64743 136.717 15.37 127.705 18.6221C144.044 14.101 170.746 9.87884 173.136 22.3955C175.743 36.0533 169.803 44.0355 166.506 46.3193L155.475 52.2393C161.747 55.6601 166.224 59.0286 167.997 62.0098C175.909 75.3143 162.122 102.914 154.239 115.051C162.726 134.278 160.354 150.21 158.107 155.771C168.605 160.965 188.993 172.833 186.562 178.756C183.523 186.16 174.516 197.762 154.239 195.773C133.962 193.784 117.442 188.093 115.674 175.551C100.661 170.638 61.1085 170.957 33.5186 171.978L35.5596 182.568C31.4892 182.237 21.1723 181.773 12.4648 182.568C1.58037 183.563 -5.60283 168.313 -7.86816 155.771C-9.6804 145.738 7.60718 133.689 16.4775 128.919C17.4086 109.608 20.7988 89.2894 20.7988 80.7949C20.799 66.0761 35.0253 40.0754 43.5156 34.0527C44.4 33.3062 45.4215 32.6461 46.5654 32.0654Z" fill="url(#paint0_linear_705_4579)"/>
<path fill-rule="evenodd" clip-rule="evenodd" d="M32.5211 172.017C32.8519 172.004 33.1844 171.992 33.5188 171.979L35.5601 182.57C31.49 182.238 21.1727 181.774 12.4651 182.57C1.58056 183.564 -5.60214 168.315 -7.86745 155.773C-9.67969 145.739 7.60785 133.691 16.4782 128.921C15.3926 151.436 17.6499 172.582 32.5211 172.017Z" fill="#FFD579"/>
<path d="M81.2705 78.629L81.0222 78.7532C75.0227 81.7523 67.8574 81.1935 62.3954 77.3006C56.0035 72.7449 47.4058 72.8205 41.095 77.4878L37.6349 80.0468C33.3205 83.2375 30.5832 88.1266 30.118 93.4725C29.6383 98.9852 31.6226 104.428 35.538 108.338L39.1992 111.995C42.2207 115.012 45.8552 117.345 49.8568 118.836L54.8259 120.688C62.8354 123.672 71.5514 124.207 79.8658 122.225L82.7832 121.53L87.9453 120.001C92.4803 118.657 96.7632 116.577 100.622 113.842L103.221 112L104.886 110.493C108.633 107.102 110.767 102.282 110.76 97.2283C110.753 92.1649 108.597 87.3424 104.829 83.9608L101.997 81.4205C96.3166 76.3233 88.0974 75.2163 81.2705 78.629Z" fill="white" fill-opacity="0.9"/>
<path d="M38.4855 190.012C32.1794 190.012 25.3478 175.049 22.7202 167.568C30.5064 150.997 48.5377 125.127 58.3729 154.215C68.2081 183.303 64.0137 190.199 60.6871 190.012H38.4855Z" fill="#FFD579"/>
<path d="M95.2217 190.012C100.994 190.012 107.247 175.049 109.652 167.568C102.525 150.997 86.0205 125.127 77.0179 154.215C68.0152 183.303 71.8546 190.199 74.8996 190.012H95.2217Z" fill="#FFD579"/>
<path d="M94.5418 47.8365C96.9189 47.957 98.7483 49.9816 98.6278 52.3587L98.0411 63.9401C98.0409 63.9441 98.0375 63.9471 98.0336 63.9469C98.0295 63.9467 98.0261 63.95 98.0261 63.954C98.0247 64.1558 98.0209 64.3587 98.0106 64.5618C97.5608 73.4346 88.7225 80.1986 78.2697 79.6692C75.0887 79.508 72.1244 78.69 69.5525 77.3798C68.0082 76.593 66.164 76.5374 64.5732 77.2253C61.7109 78.4631 58.4251 79.089 54.9617 78.9137C44.509 78.3841 36.3988 70.7621 36.8477 61.8894C36.8651 61.5473 36.8959 61.208 36.9378 60.8724C36.9392 60.8612 36.9308 60.8513 36.9196 60.8507C36.909 60.8502 36.9008 60.8411 36.9014 60.8305L37.4875 49.2611C37.6079 46.884 39.6326 45.0547 42.0097 45.1751L94.5418 47.8365Z" fill="#653E3E"/>
<ellipse cx="47.9924" cy="93.007" rx="2.65206" ry="2.98357" fill="#7F4343"/>
<ellipse cx="89.4309" cy="93.007" rx="2.65206" ry="2.98357" fill="#7F4343"/>
<path d="M71.6946 100.41H62.3019C61.0813 100.41 60.0918 101.4 60.0918 102.62V104.161C60.0918 106.071 60.8695 107.899 62.2458 109.224L62.4315 109.403C65.1767 112.045 69.5598 111.904 72.1303 109.092C73.2717 107.843 73.9046 106.213 73.9046 104.521V102.62C73.9046 101.4 72.9152 100.41 71.6946 100.41Z" fill="#FF6741"/>
<path d="M96.5366 53.8887L108.195 61.0161" stroke="#653E3E" stroke-width="5.19363" stroke-linecap="round"/>
<path d="M109.134 171.076C113.278 160.817 121.046 137.394 118.969 125.77" stroke="#F2B839" stroke-width="3.44905" stroke-linecap="round"/>
<path d="M73.4517 165.883C74.8015 160.159 78.3732 147.31 81.8619 141.703" stroke="#F2B839" stroke-width="3.44905" stroke-linecap="round"/>
<path d="M60.8356 164.831C59.4263 159.744 55.3506 147.996 50.3228 141.703" stroke="#F2B839" stroke-width="3.44905" stroke-linecap="round"/>
<rect x="43.9819" y="50.0742" width="4.0886" height="4.0886" rx="1.32603" transform="rotate(1.24821 43.9819 50.0742)" fill="#FFF7F7"/>
<rect x="47.562" y="53.5449" width="4.0886" height="4.0886" rx="1.32603" transform="rotate(1.24821 47.562 53.5449)" fill="#FFF7F7"/>
</g>
<defs>
<linearGradient id="paint0_linear_705_4579" x1="89.3806" y1="-9" x2="89.3806" y2="195.999" gradientUnits="userSpaceOnUse">
<stop stop-color="#FF8282"/>
<stop offset="0.418269" stop-color="#FFD579"/>
</linearGradient>
</defs>
</svg>
