<svg width="33" height="31" viewBox="0 0 33 31" fill="none" xmlns="http://www.w3.org/2000/svg">
<path d="M12.9131 2.26794C14.3803 -0.705039 18.6197 -0.705039 20.0869 2.26794L21.888 5.9173C22.4707 7.09787 23.5969 7.91615 24.8998 8.10546L28.9271 8.69067C32.2079 9.16741 33.518 13.1993 31.1439 15.5134L28.2297 18.3541C27.287 19.273 26.8568 20.597 27.0793 21.8946L27.7673 25.9056C28.3277 29.1732 24.898 31.6651 21.9635 30.1223L18.3614 28.2286C17.1961 27.6159 15.8039 27.6159 14.6386 28.2286L11.0365 30.1223C8.102 31.6651 4.67227 29.1732 5.23271 25.9056L5.92065 21.8946C6.1432 20.597 5.71301 19.273 4.77027 18.3541L1.85608 15.5134C-0.517984 13.1993 0.792055 9.16741 4.07294 8.69067L8.10024 8.10546C9.40308 7.91615 10.5293 7.09787 11.112 5.9173L12.9131 2.26794Z" fill="#0C9CE9"/>
</svg>
