<svg width="23" height="22" viewBox="0 0 23 22" fill="none" xmlns="http://www.w3.org/2000/svg">
<path d="M8.90045 1.9568C9.90113 -0.0707974 12.7924 -0.0707994 13.7931 1.9568L15.0214 4.44569C15.4188 5.25085 16.1869 5.80892 17.0755 5.93804L19.8221 6.33715C22.0597 6.66229 22.9532 9.41207 21.334 10.9903L19.3466 12.9277C18.7036 13.5544 18.4102 14.4574 18.562 15.3423L19.0312 18.0779C19.4134 20.3064 17.0743 22.0059 15.0729 20.9537L12.6162 19.6622C11.8215 19.2443 10.872 19.2443 10.0773 19.6622L7.62062 20.9537C5.61926 22.0059 3.28016 20.3064 3.66239 18.0779L4.13157 15.3423C4.28335 14.4574 3.98996 13.5544 3.347 12.9277L1.3595 10.9903C-0.259631 9.41208 0.633825 6.66229 2.87141 6.33715L5.61807 5.93804C6.50661 5.80892 7.27474 5.25085 7.67211 4.44569L8.90045 1.9568Z" fill="#FF4242"/>
</svg>
